<svg width="117" height="100" viewBox="0 0 117 100" xmlns="http://www.w3.org/2000/svg"><title>appstore_logo</title><path d="M94.077 56.155c-3.81 2.19-7.61 4.377-11.525 6.63-.628-1.043-1.257-2.052-1.853-3.08-3.275-5.643-6.548-11.286-9.807-16.936-2.968-5.148-5.91-10.31-8.88-15.456-3.204-5.55-6.44-11.086-9.638-16.642-.608-1.057-1.225-2.135-1.626-3.278-.46-1.3.148-2.487.99-3.443C53.368 2.106 55.384.793 57.786.21 60.05-.34 61.85.125 63.09 2.42c2.197 4.07 4.62 8.022 6.936 12.03 2.08 3.6 4.134 7.213 6.216 10.81 3.24 5.6 6.504 11.184 9.74 16.786 2.706 4.684 5.385 9.383 8.095 14.11 0 0-2.71-4.727 0 0zM22.93 81.96l-11.56-6.667L38.743 27.84l11.564 6.674L22.93 81.96s9.15-15.858 0 0zM79.58 61.364H36.95c1.113-1.938 2.18-3.81 3.263-5.674 1.395-2.403 2.787-4.807 4.22-7.186.15-.25.574-.473.87-.474 8.675-.025 17.35-.026 26.022.002.325 0 .792.242.95.51 2.317 3.974 4.594 7.97 6.877 11.96.14.248.254.51.43.862 0 0-.176-.353 0 0zm26.974 38.494c-.306-.983-.56-1.864-.86-2.727-.322-.934-.63-1.88-1.05-2.774-.905-1.927-2.796-2.57-4.569-3.353-4.34-1.914-7.018-5.2-7.932-9.834-.258-1.307-.206-2.69-.17-4.033.012-.4.356-.945.71-1.155 2.648-1.572 5.33-3.088 8.024-4.584.243-.135.695-.113.953.022 4.762 2.505 7.868 6.322 9.04 11.607.913 4.116.305 8.11-1.285 11.948-.642 1.548-1.59 2.97-2.407 4.446-.066.123-.205.203-.454.438 0 0 .25-.235 0 0zM0 61.283V48.01h25.296c-.544.99-1.053 1.938-1.585 2.872-1.9 3.337-3.802 6.673-5.728 9.996-.13.224-.46.47-.698.472-5.687.022-11.375.012-17.062.006-.054 0-.108-.034-.22-.073 0 0 .112.04 0 0zM91.52 48.01h25.01v13.294c-.202.018-.43.056-.655.056-5.288.004-10.577.01-15.864-.015-.318-.002-.782-.18-.93-.427-2.505-4.152-4.97-8.328-7.44-12.5-.056-.096-.066-.218-.12-.407 0 0 .054.19 0 0zm9.947 20.643l-11.615 6.63-6.433-11.03c3.476-1.99 6.964-3.98 10.446-5.984 1.15-.662 1.146-.68 1.798.438 1.915 3.277 3.827 6.557 5.803 9.945 0 0-1.976-3.388 0 0zM51.432 32.955c-3.92-2.24-7.757-4.435-11.64-6.655 1.43-2.44 2.796-4.888 4.277-7.263.856-1.374 2.34-1.76 3.814-1.48 3.006.575 5.562 2.04 7.37 4.55.857 1.186 1.02 2.503.208 3.868-1.373 2.304-2.684 4.64-4.03 6.98 0 0 1.346-2.34 0 0zM10.538 77.273c3.827 2.2 7.564 4.353 11.348 6.53C16.253 89.197 10.67 94.546 4.976 100c1.865-7.628 3.698-15.116 5.562-22.727 0 0-1.864 7.61 0 0z" fill="#4990E2" fill-rule="evenodd"/></svg>