<svg width="71" height="100" viewBox="0 0 71 100" xmlns="http://www.w3.org/2000/svg"><title>html5_logo</title><g fill="none" fill-rule="evenodd"><path d="M6.57 91.968L.125 19.652H70.97l-6.454 72.305L35.504 100 6.57 91.968z" fill="#E44D26"/><path d="M35.547 93.852l23.443-6.5 5.516-61.787h-28.96v68.287z" fill="#F16529"/><path d="M35.547 52.386H23.81L23 43.304h12.547v-8.87H13.307l.212 2.38 2.18 24.44h19.847v-8.868zM35.547 75.42l-.04.01-9.877-2.666L25 65.69h-8.904l1.242 13.926 18.168 5.044.04-.012V75.42z" fill="#EBEBEB"/><path d="M6.715 0h4.507v4.453h4.124V0h4.507v13.485h-4.507V8.97h-4.123v4.515H6.715V0zM25.78 4.472h-3.968V0h12.445v4.472h-3.97v9.013H25.78V4.472zM36.233 0h4.7l2.89 4.738L46.713 0h4.7v13.485h-4.49V6.8l-3.1 4.796h-.077L40.643 6.8v6.685h-4.41V0zM53.656 0h4.51v9.028h6.337v4.457H53.656V0z" fill="#000"/><path d="M35.516 52.386v8.87h10.922l-1.03 11.502-9.892 2.67v9.227l18.183-5.04.132-1.497 2.084-23.35.217-2.382H35.516zM35.516 34.435V43.303H56.94l.178-1.993.404-4.496.212-2.38H35.516z" fill="#FFF"/></g></svg>