<svg width="57" height="100" viewBox="0 0 57 100" xmlns="http://www.w3.org/2000/svg"><title>jekyll_logo</title><defs><linearGradient x1="72.493%" y1="53.226%" x2="-6.187%" y2="37.967%" id="a"><stop stop-color="#F9F9F9" offset="0%"/><stop stop-color="#ECECEC" offset="19.298%"/><stop stop-color="#AAACAC" offset="87.326%"/><stop stop-color="#8F9191" offset="100%"/></linearGradient><filter x="-50%" y="-50%" width="200%" height="200%" filterUnits="objectBoundingBox" id="b"><feOffset dx="-5" dy="-5" in="SourceAlpha" result="shadowOffsetInner1"/><feGaussianBlur in="shadowOffsetInner1" result="shadowBlurInner1"/><feComposite in="shadowBlurInner1" in2="SourceAlpha" operator="arithmetic" k2="-1" k3="1" result="shadowInnerInner1"/><feColorMatrix values="0 0 0 0 0.898039216 0 0 0 0 0.898039216 0 0 0 0 0.898039216 0 0 0 0.7 0" in="shadowInnerInner1" result="shadowMatrixInner1"/><feMerge><feMergeNode in="SourceGraphic"/><feMergeNode in="shadowMatrixInner1"/></feMerge></filter><filter x="-50%" y="-50%" width="200%" height="200%" filterUnits="objectBoundingBox" id="c"><feOffset dx="-3" in="SourceAlpha" result="shadowOffsetInner1"/><feGaussianBlur stdDeviation="2" in="shadowOffsetInner1" result="shadowBlurInner1"/><feComposite in="shadowBlurInner1" in2="SourceAlpha" operator="arithmetic" k2="-1" k3="1" result="shadowInnerInner1"/><feColorMatrix values="0 0 0 0 0 0 0 0 0 0 0 0 0 0 0 0 0 0 0.042 0" in="shadowInnerInner1" result="shadowMatrixInner1"/><feMerge><feMergeNode in="SourceGraphic"/><feMergeNode in="shadowMatrixInner1"/></feMerge></filter><linearGradient x1="100%" y1="51.332%" x2="-41.413%" y2="50%" id="d"><stop stop-color="#E90388" offset="0%"/><stop stop-color="#A10961" offset="38.536%"/><stop stop-color="#861657" offset="70.717%"/><stop stop-color="#3E102B" offset="100%"/></linearGradient></defs><g fill="none" fill-rule="evenodd"><path d="M1.13 83.937c-2.324 6.057.7 12.85 6.757 15.176 6.056 2.324 12.85-.7 15.175-6.758 0 0 27.94-73.557 28.81-75.255 2.21-1.23 3.598-1.846 4.06-2.924 1.307-3.235-3.046-8.008-11.33-11.355-8.286-3.346-15.648-3.96-15.943 0-.226 3.035.924 3.65 1.447 5.857.253.33-28.976 75.26-28.976 75.26z" fill="url(#a)" filter="url(#b)"/><path d="M41.613 10.03c4.79 1.935 9.09 2.472 9.605 1.2.514-1.274-2.952-3.875-7.742-5.81-4.79-1.936-9.09-2.473-9.605-1.2-.514 1.273 2.953 3.874 7.743 5.81z" fill-opacity=".2" fill="#333" filter="url(#c)"/><path d="M29.802 40.158c-6.69.674-9.877 4.082-12.236 10.227-.81 2.107-13.15 34.254-13.15 34.254-1.63 4.247.49 9.013 4.74 10.644 4.25 1.63 9.015-.492 10.646-4.74l22.41-58.38c-2.775 3.114-5.72 7.32-12.41 7.994z" fill="url(#d)"/><path d="M13.088 99.853c-2.897-2.432-5.244-6.2-3.997-10.64 1.77-6.297 28.506-75.5 28.506-75.5s-6.78-2.927-8.782-8.628c-.007 0-.013.002-.02.007.302 1.308.954 2.074 1.313 3.585.253.33-28.976 75.26-28.976 75.26-2.98 5.43.7 12.85 6.757 15.176 1.714.658 3.487.887 5.2.74z" fill-opacity=".4" fill="#FFF"/><g transform="translate(12.48 51.464)" fill="#FFF" fill-opacity=".5"><path d="M5.7 18.49c1.703 0 3.083-1.38 3.083-3.082s-1.38-3.08-3.082-3.08c-1.7 0-3.08 1.378-3.08 3.08C2.62 17.11 4 18.49 5.7 18.49z"/><circle cx="14.253" cy="7.935" r="1.618"/><ellipse cx="1.387" cy="20.031" rx="1.387" ry="1.387"/><circle cx="8.552" cy="1.156" r="1.156"/><circle cx="6.857" cy="29.661" r="1.156"/></g></g></svg>