<svg width="93" height="100" viewBox="0 0 93 100" xmlns="http://www.w3.org/2000/svg"><title>mailchimp_logo</title><g fill="none" fill-rule="evenodd"><path fill="#59473D" d="M74.785 31.41v.003h.002l-.002-.004M14.427 75.56h-.002.002M9.783 72.183l-.002-.002.003.003M7.32 68.298l-.002-.007.003.008M7.074 67.666v-.003.003M10.223 72.65l.006.006-.01-.008-.004-.004.007.006"/><path d="M92.412 67.635c-.027-.166-.062-.323-.1-.47-.023-.097-.055-.193-.09-.286-.07-.217-.15-.43-.25-.632v-.003c-.21-.415-.497-.803-.845-1.117-.346-.314-.744-.545-1.133-.693l-.012-.005c-.413-.155-.808-.22-1.16-.244-.104-.006-.2-.004-.297-.003.207-1.946-.525-3.32-.967-3.952l.075-.088c.414-.514.76-1 1.044-1.48l.052-.095c.222-.422.35-.843.42-1.223.058-.326.07-.616.067-.88h.004v-.015l-.002-.04v-.08h-.005l-.006-.09-.003-.053c-.006-.054-.01-.11-.017-.167-.01-.108-.026-.22-.047-.34-.098-.582-.3-1.33-.786-2.108-.244-.387-.562-.776-.964-1.123-.4-.348-.884-.65-1.423-.87l.003.002c-.04-.016-.07-.03-.106-.047-1.24-1.412-2.585-2.46-3.76-3.235-.608-.402-1.17-.73-1.648-.996-.474-.264-.87-.47-1.093-.596h.004c-.51-.283-.882-.446-1.06-.52-.41-.184-.72-.334-.907-.442-.147-.085-.22-.142-.247-.165l-.017-.015c0-.003-.02-.03-.053-.13-.034-.102-.08-.274-.12-.528-.07-.398-.127-.986-.18-1.766-.084-1.252-.157-2.988-.3-5.334-.044-.747-.123-1.445-.232-2.1-.173-1.048-.43-1.986-.757-2.825v-.003c-.074-.19-.154-.378-.237-.56v-.002l-.002-.003c-.064-.136-.115-.238-.148-.304l.002.004c-.06-.12-.122-.24-.188-.362l-.003-.005c-.032-.058-.074-.135-.13-.23v-.002c-.105-.178-.22-.37-.36-.57l-.04-.056-.07-.095-.05-.063c-.254-.325-.52-.615-.79-.883-.186-.52-.49-1.287-.943-2.145-.402-.755-.918-1.583-1.603-2.378-.237-.274-.502-.542-.787-.8l.072-.097c.102-.136 2.516-3.388 4.22-7.43C77.61 9.363 75.73 5.233 73.59 3.094l-.06-.06-.064-.055C71.443 1.224 68.878.334 65.842.334c-6.29 0-12.915 3.91-14.644 5.002l-3.796-3.272-.015-.013c-.336-.287-.7-.536-1.083-.747-.384-.21-.79-.384-1.21-.52-.845-.27-1.75-.393-2.694-.393-1.897.002-3.967.487-6.176 1.356-3.31 1.306-6.937 3.492-10.65 6.398-3.713 2.908-7.507 6.54-11.105 10.745-4.398 5.14-7.9 10.433-10.32 15.344C2.94 36.69 2 39.05 1.357 41.258c-.64 2.21-.985 4.265-.986 6.128 0 1.353.183 2.61.595 3.738.18.493.408.96.68 1.396.352.56.776 1.067 1.282 1.5l.012.01 4.388 3.583-.017.043-.094.237c-.048.118-.095.236-.138.354-.03.08-.057.162-.085.243-.04.12-.082.24-.12.363-.025.082-.05.163-.073.246-.037.122-.07.246-.104.37l-.062.247c-.03.126-.06.254-.086.38-.018.083-.036.166-.052.248-.025.13-.047.26-.068.39l-.02.11-.02.138c-.02.134-.035.27-.05.403-.01.08-.02.162-.028.243-.006.058-.01.116-.015.175-.008.083-.013.166-.02.25l-.014.225c-.008.168-.012.338-.014.507l-.003.15V62.993c0 .11.005.22.008.332.004.174.013.347.024.522.005.077.01.155.017.232.004.06.006.12.012.18.01.12.028.244.043.366l.028.22.016.132v.016l.002.01.037.234c.013.086.032.17.048.255.01.063.02.127.033.19.012.055.02.097.03.133l.054.24c.02.09.04.188.07.3v.008-.002l.03.106c.023.09.05.18.074.27.022.08.047.17.08.28l.037.115.053.16.002.004.002.007.023.068c.024.073.054.166.1.29.01.035.02.057.03.086.03.08.055.14.07.18l.032.082.034.088.03.075.026.062.022.056c.012.03.02.05.032.075l.03.076.083.178c.03.07.07.16.128.284l-.01-.02.012.023c.015.03.024.05.037.073l.11.22v.004h.002c.033.067.082.166.15.292v.002l.002.003-.002-.004.006.01-.003-.004.03.05c.042.08.075.14.102.186l.034.058.006.01.067.117c.025.044.054.094.09.153l-.004-.005.034.057.09.145.066.104-.002-.005.004.008.003.004-.003-.004c.04.064.09.146.16.248l.005.01.004.005.03.043.082.118c.035.052.066.094.092.13l.005.01.156.22.005.006.006.007.028.037.082.108c.045.057.085.107.117.15l.01.012.002.003c.032.04.083.107.155.195l.006.008.02.026c.036.042.07.082.1.12l.134.154-.006-.007.176.2.007.008.004.005-.007-.01.01.01.005.007-.002-.002.003.004.112.12c.05.057.1.108.142.153l-.002-.003c.04.043.093.098.156.162l.013.014.137.135.16.155.018.017.128.12.024.022.008.01.013.01c.08.073.152.137.224.2l.076.068h.002l.002.003.006.005c.034.03.078.07.132.113l.017.015v.002l.003.002.01.008-.002-.002c.086.073.17.14.255.206.034.027.07.058.104.083l.005.003c.016.014.058.047.124.098l.012.01.04.03c.1.078.204.152.307.225l.025.02.006.003.004.002.003.003.13.092.008.005c.134.09.266.18.398.264l.007.005.074.046.05.032h-.002l.076.044c.11.07.22.135.325.196l.028.017.013.008c.043.023.07.04.088.05l.02.012.015.007.092.05c.092.05.184.1.277.148l.078.042.01.004.095.05h.004l.048.024c.093.047.192.094.29.14.053.025.1.05.154.073l.083.038.048.02.03.014c.154.068.298.128.428.18l.013.005.08.03.007.004c.18.07.35.132.513.188l.028.01.09.03c.086.028.17.053.257.08l.12.038c.05.015.1.033.15.047l.042.012.01.002.02.006c.083.024.165.043.247.065l.04.01.277.073.023.005.066.016c.044.01.088.017.13.027l.04.008c.132.03.263.06.396.085l.03.005.01.003h.007c.203.038.406.07.608.098l.008.002.033.005-.01-.002c.178.024.352.042.526.06h.002l.064.008.067.005c.165.015.333.023.5.03l.05.008.118.004c.1.004.202.004.303.005l.057.11.003.007c.363.707.748 1.406 1.155 2.1 6.263 12.31 20.383 20.703 35.306 20.703 14.922 0 29.394-11.717 34.145-25.71.212-.54.403-1.066.572-1.575.553-.73.96-1.47 1.2-2.227.285-.892.306-1.796.18-2.518" fill="#59473D"/><path d="M90.084 68.202s.006-.61-.376-1.108l-.01-.013c-.022-.03-.046-.055-.07-.082l-.024-.028c-.04-.043-.088-.083-.137-.122-.088-.072-.188-.137-.304-.192-.06-.03-.126-.057-.196-.08-.19-.064-.413-.103-.674-.108-.19-.005-.405.014-.638.05-.093.015-.185.03-.286.05l-.047.01.025.06.066.164.035.09c.048.128.11.29.174.477 0 0-.008.04-.03.113l-.01.038c-.082.287-.322.953-.926 1.854-.104.153-.218.314-.344.48-1.716 2.28-5.62 5.71-14.385 8.445-2.99.807-5.794 1.18-8.228 1.18-3.598 0-6.396-.802-7.82-2.17-.122-.12-.238-.24-.348-.366-.082-.092-.16-.184-.235-.28-.028-.035-.052-.07-.08-.106-.647-.873-1.005-1.867-1.114-2.86-.133-1.204.1-2.402.624-3.366.426-.782 1.044-1.41 1.814-1.76.378-.17.79-.278 1.236-.302.09-.006.21-.008.36-.008.298 0 .716.008 1.23.01h.17c1.71 0 4.42-.08 7.637-.682 5.853-1.092 13.384-3.912 19.64-11.143l.016-.028v-.012c-.043-.535-.234-1.487-.998-2.15-.135-.118-.287-.225-.457-.32-.097-.054-.2-.105-.31-.15-.11-.045-.21-.092-.31-.138-.133-.063-.26-.127-.376-.19l-.018-.022c-.057-.068-.117-.134-.174-.202-2.173-2.542-4.89-3.836-5.987-4.448-.517-.29-.838-.41-.838-.41-2.34-1.054-2.713-1.454-2.958-5.077-.088-1.303-.16-3.023-.3-5.35-.02-.303-.046-.59-.075-.87l-.022-.2c-.03-.264-.066-.522-.107-.77l-.012-.07-.014-.076c-.035-.194-.073-.382-.11-.565-.02-.08-.037-.162-.056-.24-.045-.195-.095-.384-.148-.565-.027-.093-.057-.182-.086-.27-.032-.102-.066-.2-.1-.297-.033-.095-.067-.19-.103-.282v-.002c-.043-.11-.09-.217-.136-.323-.016-.037-.032-.078-.05-.115l-.05-.104-.016-.034-.05-.1-.002-.008c-.04-.08-.082-.16-.124-.237l-.013-.024-.04-.073-.05-.09-.01-.017c-.085-.146-.17-.285-.26-.415l-.07-.094c-.1-.126-.2-.243-.302-.355l-.042-.047-.05-.05c-.072-.08-.144-.154-.217-.224l-.1-.097c-.094-.09-.188-.174-.284-.253l-.004-.014-.005-.018-.007-.023-.01-.033-.01-.034-.018-.054-.01-.033-.025-.075-.01-.027c-.047-.143-.112-.33-.196-.55l-.005-.016-.066-.166-.01-.022c-.024-.06-.05-.12-.075-.184l-.002-.004c-.062-.147-.133-.305-.208-.47l-.078-.162c-.055-.114-.11-.228-.173-.347-.033-.068-.07-.135-.11-.204-.057-.11-.12-.22-.184-.333-.042-.073-.087-.146-.132-.22-.068-.11-.136-.22-.21-.33-.048-.075-.097-.15-.15-.224-.077-.112-.16-.22-.242-.33l-.162-.21c-.095-.117-.196-.23-.298-.343-.05-.056-.1-.114-.152-.17-.046-.048-.098-.09-.146-.14-.115-.112-.23-.228-.352-.333l-.015-.012-.067-.05c-.16-.134-.325-.262-.5-.377l-.03-.02c-.078-.05-.157-.098-.236-.144l-.01-.005-.028-.015c-.07-.04-.14-.077-.21-.113l-.04-.02.017.01c-.076-.042-.21-.093-.383-.146-.06-.018-.127-.037-.2-.056-.355-.094-.833-.19-1.394-.268-.034-.005-.072-.01-.106-.013-.467-.062-.98-.11-1.525-.127-.184-.007-.37-.01-.556-.01-.088 0-.177.007-.267.01-.036 0-.072 0-.108.002-.424.012-.852.037-1.28.094l-.024.003c-.55.074-1.093.187-1.606.357.097-.22.404-.488.715-.718.387-.288.783-.515.783-.515-.236.047-.475.11-.715.18-.077.024-.155.044-.23.07-.05.014-.102.03-.15.047l-.045.014-.123.043c-1.194.414-2.32 1.003-2.94 1.352-.09.05-.168.094-.234.133l-.04.022c-.063.017-.13.035-.194.05.374-.956 1.028-1.526 1.54-1.85.09-.055.175-.106.253-.148.03-.017.053-.027.08-.04.074-.038.14-.068.195-.092.123-.054.204-.08.204-.08-.058.008-.112.023-.168.033l-.144.03c-.07.014-.14.026-.21.042-.04.01-.083.016-.126.025-1.336.315-2.485.925-3.447 1.624-.663.483-1.24 1.007-1.72 1.51l-.422.147c-1.443.5-3.085 1.118-4.797 1.886-.633.283-1.275.587-1.92.913-.502.254-1.007.526-1.51.807-.36.202-.72.41-1.08.628-2.58 1.56-5.072 3.515-7.065 5.97-.07.087-.146.172-.217.26-.173.222-.336.45-.5.68-.068.092-.14.18-.205.275-.082.118-.156.243-.236.362-.36.544-.704 1.103-1.012 1.69-.23.438-.442.888-.638 1.35l-.025.055c-.406.964-.74 1.984-.986 3.063-.123.54-.225 1.094-.303 1.664-.02.15-.042.3-.06.454l-.01.08c-.068.616-.105 1.25-.118 1.903-.003.128-.008.255-.008.385 0 .325.008.654.022.988.013.304.033.612.058.925l.006.07c.012.153.023.305.04.46.016.176.04.355.062.534l.015.123c.045.35.095.7.154 1.06l.01.056c.06.355.13.716.207 1.08.032.15.064.302.1.455l.023.112.06.255c.096.402.203.81.318 1.22.032.115.063.23.096.344.104.36.214.723.334 1.09 0 0-.126-.474-.173-1.19-.01-.165-.018-.342-.017-.53 0-.41.03-.867.12-1.344.023-.117.05-.235.078-.354.014-.052.03-.103.043-.156.06-.222.132-.444.222-.667.046.146.093.29.142.435l.015.047.006.07.034.295c.027.227.06.483.096.762.037.28.08.58.13.897.207 1.332.522 2.933.983 4.27 0 0-.258-2.506.13-2.84 0 0 1.315 4.536 2.22 6.2.117.214.227.383.327.486l-.075-.457-.417-2.562-.02-.266c.647.99 1.367 2 2.167 3.03.222.287.447.573.68.86-1.132 1.278-2.11 3.008-2.72 5.005-.098.32-.186.646-.263.978-.045.19-.085.38-.122.574-.012.06-.023.12-.033.182-.025.136-.048.272-.07.41l-.03.21c-.018.137-.035.275-.05.414l-.022.194c-.02.198-.036.397-.047.598v.02c-.012.2-.02.404-.022.607v.197c0 .144 0 .29.005.436 0 .074.003.148.006.222.006.147.015.294.025.442.006.066.01.132.015.2.018.212.04.425.067.64l.004.027c.022.164.046.328.073.494.027.166.058.332.09.5l.013.065.008.042c.043.202.09.405.14.608l.053.192c.037.14.074.278.115.418.023.077.048.154.073.23.04.128.08.256.124.383.03.08.058.163.088.245.044.123.09.247.14.37.032.084.065.166.1.25.05.123.102.247.157.37.035.082.072.163.108.245.06.128.122.255.185.383l.114.23c.073.14.15.28.227.422.035.062.067.125.103.188.232.407.486.812.762 1.215.04.06.084.12.127.18.1.142.2.282.305.423.055.073.112.146.17.22.097.125.196.25.298.378.064.08.13.156.195.233.1.12.204.242.31.36l.214.24c.108.117.22.235.332.353l.225.233c.12.12.243.24.366.36.077.073.15.146.23.218.138.13.282.26.428.39.07.06.134.12.204.18.217.19.44.377.67.563-.002-.002-.142-.158-.34-.436l-.006-.01c-.037-.05-.076-.108-.116-.17l-.012-.016c-.042-.064-.086-.133-.13-.205l-.01-.012c-.046-.076-.095-.158-.144-.244-.392-.687-.81-1.657-.912-2.784.136.14.273.277.41.416.173.263.39.588.643.952l.265.376c.367.516.79 1.086 1.246 1.653.546.68 1.138 1.354 1.733 1.926-.003-.005-.757-1.18-1.06-1.975-.085-.222-.136-.417-.122-.545l.164.13c.054.045.11.088.163.13.112.117.25.262.41.423l.078.08c.077.08.158.163.245.25l.005.006.312.314c.977.978 2.27 2.223 3.164 2.884.297.22.55.376.733.435l-1.41-1.923c2.873 1.8 13.98 3.187 24.21-1.176 1.237-.526 2.458-1.138 3.652-1.842.72-.425 1.43-.88 2.125-1.374l.1-.074c.488-.35.968-.72 1.44-1.108l.01-.01c.358-.29.708-.592 1.054-.903.578-.525 1.147-1.073 1.695-1.66l.003-.004c.03-.035.063-.07.096-.105.54-.605 1.04-1.22 1.497-1.84.605-.82 1.138-1.646 1.61-2.466l.036-.06c.114-.202.227-.403.335-.602l.03-.058c.037-.067.067-.132.102-.2.15-.286.298-.57.435-.854l.1-.204c.07-.15.137-.3.204-.446.05-.115.102-.23.15-.345.055-.123.11-.248.162-.37.093-.225.183-.448.27-.668l.096-.258c.065-.172.127-.34.187-.507.027-.078.055-.155.08-.233l.025-.073c.074-.21.145-.42.21-.623l.012-.043c.302-.36.53-.697.707-1.013.024-.045.052-.09.075-.135.388-.743.468-1.366.41-1.908M25.754 68.412l-.044-.14.01-.005c-.21-.667-.392-1.357-.548-2.065-.01-.05-.025-.1-.035-.15-.114.053-.228.226-.336.456-.038.086-.077.18-.115.278-.274.718-.48 1.692-.48 1.692-.015-.315-.02-.643-.023-.973v-.115c0-.336.004-.676.012-1.014l.003-.122c.01-.38.025-.76.043-1.127.002-.048.006-.093.007-.14l.002-.025c.002-.042.003-.085.006-.127l.01-.19c.017-.29.035-.57.054-.84l.053-.684.006-.068c0-.034.004-.065.007-.098l.008-.096v-.01l.015-.162v-.014l.014-.14.02-.22v-.02c.007-.055.012-.113.017-.164.008-.074.015-.14.02-.206l.002-.002v-.002l.01-.103v-.006l.01-.092c.007-.068.013-.13.02-.176l.003-.042.003-.016.005-.05.004-.034v-.005l-.004.005-.064.075c-.058.064-.117.128-.17.2l-.056.08c-.06.087-.12.178-.172.273l-.028.047c-.065.12-.125.245-.18.37v.002l-.008.016v.002l-.02.055c-.014.03-.025.063-.038.093-.03.08-.063.156-.09.235l-.002.003v.004l-.003.006-.01.03-.01.03c-.04.124-.08.247-.113.37-.096.34-.164.663-.21.93-.018.096-.032.186-.044.266-.026.172-.042.306-.048.372v.006l-.005.044-.002-.05c-.006-.1-.006-.2-.012-.3-.01-.21-.023-.418-.026-.627-.003-.174.003-.347.007-.522 0-.055 0-.11.002-.164 0-.08.002-.16.005-.24.003-.076.01-.15.015-.225v-.006l.004-.083.002-.02c.006-.093.01-.183.017-.274l.007-.105.005-.062v-.01l.008-.09c.003-.038.01-.074.012-.11.013-.132.03-.264.043-.395l.003-.022c.01-.097.02-.195.032-.292v-.004l.002-.007.003-.03c.027-.198.06-.394.09-.59l.008-.054.01-.055.016-.11c.054-.32.114-.638.18-.948l.01-.04c.058-.263.117-.524.182-.78l.007-.03.09-.334.004-.017.135-.498h.002v-.004l.006-.02c.012-.042.042-.14.088-.286V57.5l.007-.02.053-.17c.028-.094.056-.186.085-.277l.025-.08v-.003l.522-1.292c.02-.054.043-.108.064-.162l.01-.027.027-.067.17-.427.24-.593c.153-.38.284-.702.364-.896l.082-.2.004-.01h-.002l-.002-.002-.007-.004c-.03-.014-.25-.13-.612-.29-.41-.184-1.007-.427-1.723-.658-.23-.074-.47-.146-.723-.214-.3-.082-.615-.16-.942-.225-.083-.017-.172-.027-.256-.043-.273-.05-.55-.09-.835-.123h-.016c-.194-.023-.39-.046-.588-.058-.155-.01-.31-.02-.468-.023-.076 0-.152.003-.228.005-.074.003-.15.003-.223.006-.21.007-.42.023-.63.045-.103.01-.205.02-.306.034-.452.067-.895.163-1.326.28l-.08.022c-.775.216-1.514.51-2.207.875-.235.124-.466.255-.69.394-.065.038-.128.08-.192.12-.077.05-.155.1-.23.152-.675.46-1.293.994-1.85 1.583l-.02.02c-.477.51-.907 1.062-1.283 1.65-.108.168-.21.338-.31.512-.117.205-.228.413-.332.625-.196.4-.37.814-.518 1.238-.052.15-.103.298-.15.45l-.023.087c-.293.985-.454 2.02-.466 3.083-.003.207 0 .417.01.628l.002.078c.01.167.02.334.037.5.02.205.043.41.074.616l.017.098c.025.16.05.318.083.475l.018.082c.01.037.017.072.025.11.027.123.053.246.083.367l.008.027.003.01.052.183c.03.11.058.22.09.328.026.08.053.155.078.234.034.1.066.202.102.3.03.083.062.162.093.242l.02.056.034.084.026.063.03.076c.034.083.072.164.11.246.037.087.076.174.116.26.04.083.083.164.125.247l.032.066.09.177c.046.084.095.166.142.25.043.075.085.15.13.226.026.042.052.083.08.124.025.04.05.083.077.124l.136.212c.057.084.117.166.175.25.047.063.092.13.14.193.06.084.127.166.192.25.046.06.092.118.14.176.068.083.14.165.21.247.047.054.092.108.14.16.075.084.152.165.23.247.045.048.09.097.138.144.082.084.166.164.25.244l.135.128c.088.083.18.162.27.24l.13.112c.096.08.193.16.292.236.042.032.083.066.125.097.102.078.207.155.31.23l.12.083c.11.076.22.15.333.22.038.026.075.05.112.073.117.074.235.145.355.214l.102.058c.123.07.25.136.375.2l.094.05c.13.065.262.13.396.19l.084.036c.138.064.277.12.417.177l.075.03c.145.056.29.11.438.16l.063.02c.152.052.304.1.458.144l.054.016c.157.044.315.085.475.124l.044.01c.163.038.327.073.493.104l.034.007c.08.015.162.026.244.04.088.013.177.03.266.042l.025.003c.173.024.348.043.524.058l.015.003h.003c.178.015.357.026.536.032l.008.002c.552.02 1.113 0 1.678-.064.134-.015.27-.03.404-.048.18-.027.363-.062.548-.1.252-.052.505-.115.76-.186.224-.062.447-.13.67-.206.344-.118.684-.248 1.01-.387.975-.422 1.82-.924 2.305-1.39 0 0-.545-1.515-1.04-3.06l-.16-.508M67.22 25.252l-.003-.002.003.002" fill="#856249"/><path d="M90.084 68.202s.006-.61-.376-1.108l-.01-.013c-.022-.03-.046-.055-.07-.082l-.024-.028c-.04-.043-.088-.083-.137-.122-.088-.072-.188-.137-.304-.192-.06-.03-.126-.057-.196-.08-.19-.064-.413-.103-.674-.108-.19-.005-.405.014-.638.05-.093.015-.185.03-.286.05l-.047.01.025.06.066.164.035.09c.048.128.11.29.174.477 0 0-.008.04-.03.113l-.01.038c-.082.287-.322.953-.926 1.854-.104.153-.218.314-.344.48-1.716 2.28-5.62 5.71-14.385 8.445-2.99.807-5.794 1.18-8.228 1.18-3.598 0-6.396-.802-7.82-2.17-.122-.12-.238-.24-.348-.366-.082-.092-.16-.184-.235-.28-.028-.035-.052-.07-.08-.106-.647-.873-1.005-1.867-1.114-2.86-.133-1.204.1-2.402.624-3.366.426-.782 1.044-1.41 1.814-1.76.378-.17.79-.278 1.236-.302.09-.006.21-.008.36-.008.298 0 .716.008 1.23.01h.17c1.71 0 4.42-.08 7.637-.682 5.853-1.092 13.384-3.912 19.64-11.143l.016-.028v-.012c-.043-.535-.234-1.487-.998-2.15-.135-.118-.287-.225-.457-.32-.097-.054-.2-.105-.31-.15-.11-.045-.21-.092-.31-.138-.133-.063-.26-.127-.376-.19l-.018-.022c-.057-.068-.117-.134-.174-.202-2.173-2.542-4.89-3.836-5.987-4.448-.517-.29-.838-.41-.838-.41-2.34-1.054-2.713-1.454-2.958-5.077-.088-1.303-.16-3.023-.3-5.35-.02-.303-.046-.59-.075-.87l-.022-.2c-.03-.264-.066-.522-.107-.77l-.012-.07-.014-.076c-.035-.194-.073-.382-.11-.565-.02-.08-.037-.162-.056-.24-.045-.195-.095-.384-.148-.565-.027-.093-.057-.182-.086-.27-.032-.102-.066-.2-.1-.297-.033-.095-.067-.19-.103-.282v-.002c-.043-.11-.09-.217-.136-.323-.016-.037-.032-.078-.05-.115l-.05-.104-.016-.034-.05-.1-.002-.008c-.04-.08-.082-.16-.124-.237l-.013-.024-.04-.073-.05-.09-.01-.017c-.085-.146-.17-.285-.26-.415l-.07-.094c-.1-.126-.2-.243-.302-.355l-.042-.047-.05-.05c-.072-.08-.144-.154-.217-.224l-.1-.097c-.094-.09-.188-.174-.284-.253-.117-.096-.233-.186-.35-.267-.128-.06-.254-.112-.38-.156-.04-.016-.082-.026-.122-.038-.083-.028-.166-.053-.248-.073-.048-.012-.095-.02-.142-.03-.073-.013-.148-.027-.22-.036-.048-.005-.096-.01-.144-.013-.07-.005-.14-.01-.21-.01h-.142c-.07.003-.138.008-.205.013-.047.005-.09.01-.137.017-.07.01-.138.02-.206.035-.043.01-.085.017-.127.027l-.09.025c-.043.012-.085.023-.127.037-.037.01-.073.02-.11.034-.084.028-.166.06-.248.096l-.073.03c-.216.093-.428.207-.638.336l-.07.044c-.08.05-.162.103-.244.157l-.09.065c-.075.05-.147.104-.22.157l-.098.076c-.072.054-.143.11-.215.166l-.096.078c-.074.06-.148.12-.222.183l-.082.07c-.084.07-.167.143-.25.216l-.05.044-.284.25-.004.005-.014.01c-.177.158-.353.318-.532.48l-.455.402-.073.066c-.156.134-.313.267-.47.398l-.08.065c-.158.13-.318.255-.48.376l-.086.063c-.162.12-.33.233-.498.344l-.084.053c-.172.11-.348.213-.527.308l-.073.038c-.185.096-.374.185-.568.263l-.052.02c-.203.08-.41.15-.624.205-.357.096-.72.157-1.087.205-.597.077-1.2.103-1.814.088-.205-.005-.41-.016-.617-.028l-.22-.01c-.537-.038-1.08-.094-1.627-.156l-.69-.08c-.37-.042-.746-.082-1.12-.12-.074-.006-.147-.016-.22-.023h.003l-.158-.014-.248-.023c-.08-.006-.16-.01-.238-.017l-.042-.004-.028-.003-.218-.015c-.168-.01-.338-.02-.508-.026-.05-.003-.1-.003-.15-.005-.126-.003-.25-.007-.377-.007H51.383c-.11 0-.22 0-.327.004l-.217.007c-.034 0-.067.003-.1.005-.074.002-.15.006-.224.01l-.214.015c-.114.01-.226.02-.34.033-.033.004-.067.008-.1.01l-.095.01c-.14.02-.28.04-.42.063-.038.007-.076.01-.114.018-.18.03-.357.067-.535.108-.047.01-.093.024-.14.034-.115.03-.23.06-.346.092l-.05.014c-.065.017-.127.038-.19.057-.12.037-.235.075-.352.116-.068.023-.136.047-.203.073-.116.044-.232.09-.348.14-.066.027-.132.054-.198.084-.125.055-.25.116-.373.178-.058.028-.113.053-.17.084-.18.092-.36.193-.54.3-1.388 1.047-2.527 2.38-3.377 3.878-.283.498-.535 1.015-.753 1.545-.23.562-.42 1.14-.574 1.724-.044.17-.087.342-.125.515-.063.29-.12.583-.164.877-.005.03-.008.062-.012.093-.048.33-.083.664-.105.998-.024.35-.032.698-.028 1.046.003.188.007.377.018.564.03.505.095 1.007.188 1.505l.027.135c.025.127.045.254.075.38.08.352.176.703.29 1.048.044.127.094.246.14.37.046.115.087.236.135.35.362.873.822 1.642 1.343 2.33 1.978 2.61 4.865 3.96 6.917 4.62.795.24 1.62.44 2.47.598l-.09.077c-.14.055-.303.12-.486.197-.272.115-.59.256-.934.422-.39.188-.817.408-1.265.662-1.193.678-2.53 1.598-3.67 2.78-.142.147-.282.3-.417.455-.23.265-.448.545-.654.836-.025.033-.05.064-.072.098-.032.045-.06.09-.09.135-.08.116-.154.234-.227.355l-.087.144c-.095.164-.187.33-.273.5-.083.17-.162.342-.236.517-.587 1.403-.82 3.024-.455 4.88v-.035l.007-.072v-.016l.01-.1.004-.025.02-.15.004-.036c.008-.06.017-.122.03-.19v-.002c.01-.067.024-.14.038-.216l.01-.047.05-.242.01-.04c.02-.08.04-.16.063-.244l.01-.04c.026-.09.054-.184.084-.28l.018-.06c.032-.097.065-.196.103-.298l.006-.01c.057-.153.122-.308.192-.464l.082-.178.024-.05c.06-.124.128-.248.2-.37.058-.102.122-.203.188-.303l.064-.093c.053-.077.11-.154.167-.23l.07-.092c.08-.1.162-.198.25-.295l.007-.008s-1.224 4.066-.103 7.03l-.005-.025c0-.006 0-.012-.002-.02l-.008-.06c0-.007 0-.012-.002-.018l-.013-.112v-.017c-.006-.045-.01-.095-.014-.152 0-.006 0-.01-.002-.016l-.01-.19v-.017c-.004-.07-.007-.143-.008-.22v-.02c-.002-.078 0-.16 0-.244v-.022c.002-.09.006-.184.01-.28l.002-.024.003-.05c.008-.11.02-.222.034-.336l.004-.023c.014-.112.032-.225.053-.34l.02-.104.015-.072c.02-.095.045-.19.072-.284l.004-.016c.04-.132.086-.262.137-.39.013-.036.028-.07.042-.103.055-.128.115-.254.186-.375l.002-.005s.02.96.187 2.086c.026.178.057.36.092.543.023.12.045.243.072.364-.074-1.223.005-2.39.196-3.493-.19 1.104-.27 2.27-.196 3.494.048.782.16 1.584.343 2.407.307 1.372.82 2.8 1.593 4.274 0 0-.754-1.713-.208-3.587.09.154.185.307.282.46.13.52.328 1.258.585 2.064.32 1.355 1.49 5.398 4.653 7.95 0 0-1.23-1.242-1.287-3.05.14.22.275.418.403.588.59.838 1.752 2.39 2.935 3.418 0 0-1.046-1.528-.894-1.904 0 0 3.177 3.076 4.093 3.3l-1.387-1.763-.033-.053c4.355 2.4 9.97 2.794 16.516.064 1.124-.47 2.276-1.032 3.455-1.692.72-.425 1.43-.88 2.125-1.374l.1-.074c.488-.35.968-.72 1.44-1.108l.01-.01c.358-.29.708-.592 1.054-.903.578-.525 1.147-1.073 1.695-1.66l.003-.004c.03-.035.063-.07.096-.105.54-.605 1.04-1.22 1.497-1.84.605-.82 1.138-1.646 1.61-2.466l.036-.06c.114-.202.227-.403.335-.602l.03-.058c.037-.067.067-.132.102-.2.15-.286.298-.57.435-.854l.1-.204c.07-.15.137-.3.204-.446.05-.115.102-.23.15-.345.055-.123.11-.248.162-.37.093-.225.183-.448.27-.668l.096-.258c.065-.172.127-.34.187-.507.027-.078.055-.155.08-.233l.025-.073c.074-.21.145-.42.21-.623l.012-.043c.302-.36.53-.697.707-1.013.024-.045.052-.09.075-.135.388-.743.468-1.366.41-1.908M25.137 66.053c-.114.052-.228.225-.336.455-.038.086-.077.18-.115.278-.274.718-.48 1.692-.48 1.692-.015-.315-.02-.643-.023-.973v-.115c0-.336.004-.676.012-1.014l.003-.122c.01-.38.025-.76.043-1.127.002-.048.006-.093.007-.14l.002-.025c.002-.042.003-.085.006-.127l.01-.19c.017-.29.035-.57.054-.84l.053-.684.006-.068c0-.034.004-.065.007-.098l.008-.096v-.01l.015-.162v-.014l.014-.14.02-.22v-.02c.007-.055.012-.113.017-.164.008-.074.015-.14.02-.206l.002-.002v-.002l.01-.103v-.006l.01-.092c.007-.068.013-.13.02-.176l.003-.042.003-.016.005-.05.004-.034v-.005l-.004.005-.064.075c-.058.064-.117.128-.17.2l-.056.08c-.06.087-.12.178-.172.273l-.028.047c-.065.12-.125.245-.18.37v.002l-.008.016v.002l-.02.055c-.014.03-.025.063-.038.093-.03.08-.063.156-.09.235l-.002.003v.004l-.003.006-.01.03-.01.03c-.04.124-.08.247-.113.37-.096.34-.164.663-.21.93-.018.096-.032.186-.044.266-.026.172-.042.306-.048.372v.006l-.005.044-.002-.05c-.006-.1-.006-.2-.012-.3-.01-.21-.023-.418-.026-.627-.003-.174.003-.347.007-.522 0-.055 0-.11.002-.164 0-.08.002-.16.005-.24.003-.076.01-.15.015-.225v-.006l.004-.083.002-.02c.006-.093.01-.183.017-.274l.007-.105.005-.062v-.01l.008-.09c.003-.038.01-.074.012-.11.013-.132.03-.264.043-.395l.003-.022c.01-.097.02-.195.032-.292v-.004l.002-.007.003-.03c.027-.198.06-.394.09-.59l.008-.054.01-.055.016-.11c.054-.32.114-.638.18-.948l.01-.04c.058-.263.117-.524.182-.78l.007-.03.09-.334.004-.017.135-.498h.002v-.004l.006-.02c.012-.042.042-.14.088-.286V57.5l.007-.02.053-.17c.028-.094.056-.186.085-.277l.025-.08-.18-.064-.034-.013-.065-.023c-.39-.13-.796-.223-1.21-.278l-.066-.007c-.266-.034-.535-.05-.807-.048-.158 0-.316.007-.475.02-.132.01-.264.026-.397.045-.2.03-.393.07-.585.117-.06.014-.12.033-.178.048-.095.027-.187.056-.28.085-.037.013-.075.023-.11.036-.066.022-.13.045-.194.07-.126.047-.25.1-.37.155-.055.025-.113.048-.167.075-.162.08-.322.167-.476.26-.062.038-.12.08-.18.117-.07.046-.138.094-.207.142l-.072.048c-.074.055-.147.113-.22.17-.068.054-.136.11-.2.167-.08.068-.156.137-.232.208-.046.044-.09.09-.135.136-.12.124-.234.254-.345.385-.056.068-.11.138-.165.208-.097.122-.19.246-.275.375l-.043.064c-.046.07-.086.143-.128.214l-.006.01-.006.01c-.028.05-.06.095-.086.145l-.01.02-.01.02h-.002v.002c-.168.308-.307.63-.422.963-.017.048-.03.096-.046.144-.052.162-.098.326-.138.494-.015.066-.034.13-.047.197v.002h-.002v.002c-.034.17-.06.34-.08.515l-.007.064-.005.082v.007c-.013.127-.025.253-.03.38V62.93l.003.203c0 .05 0 .102.002.154.01.2.028.398.058.6.023.154.056.305.09.456v.01l.015.07c.02.083.045.165.067.247.083.3.183.59.307.868.092.212.196.417.31.615.21.364.457.7.73 1.013.573.657 1.273 1.195 2.06 1.573.446.214.92.374 1.41.48.47.105.958.163 1.456.155.112-.002.225-.007.34-.014.167-.008.336-.023.506-.047.156-.024.307-.06.46-.096.087-.02.178-.03.264-.054.22-.06.432-.132.64-.21l.046-.018c.086-.034.166-.078.25-.115.26-.116.508-.248.747-.396l.053-.032c.067-.04.136-.077.2-.12l.01-.005c-.21-.667-.392-1.357-.548-2.065-.01-.05-.025-.1-.035-.15" fill="#FCE9C9"/><path d="M55.174 39.873c-.302-.12-.624-.19-.945-.23-.214-.025-.425-.035-.633-.035-.078 0-.154.002-.232.005-1.06.04-1.948.33-1.948.33-.188.068-.368.142-.543.22-1.37.61-2.272 1.475-2.86 2.418-.475.765-.744 1.578-.885 2.348-.014.068-.024.136-.034.203-.03.2-.055.395-.07.585-.057.64-.036 1.22.007 1.677.06.625.158 1.02.158 1.02.18-.574.38-1.105.59-1.605.52-1.24 1.122-2.262 1.758-3.1 1.236-1.636 2.586-2.586 3.655-3.13 1.154-.587 1.98-.704 1.98-.704M71.956 35.723l-.056-.056c-.185-.183-.4-.346-.65-.475-.587-.305-1.358-.406-2.367-.065 0 0-1.196.443-1.814 1.337 0 0 2.03-1.18 4.498.15.226.12.453.265.685.43.236.17.474.362.714.582 0 0-.213-.977-.88-1.76-.042-.048-.087-.096-.13-.143M52.025 49.996c.073-.073.146-.146.228-.22.034-.03.07-.058.106-.088.075-.065.147-.13.228-.192.046-.036.097-.07.145-.105.077-.057.152-.114.235-.17.055-.037.117-.072.175-.108.083-.052.163-.105.25-.154.065-.038.137-.072.205-.108.087-.046.172-.092.263-.135.077-.036.16-.07.24-.103.092-.04.18-.08.274-.115.088-.033.182-.06.273-.092.087-.03.17-.06.26-.087h.002l.053-.016c.127-.033.253-.06.377-.085l.116-.02c.085-.014.17-.028.252-.04l.13-.015c.077-.008.153-.015.227-.02l.133-.01.215-.006.083-.002h.03c.16.002.314.01.465.023l.08.007c.15.015.293.035.43.06l.067.012c.142.027.277.058.408.093l.035.01c.133.036.26.076.38.12l.01.003h.003c.143.054.278.11.403.167l.006.003c.126.06.243.12.348.18-.193-.722-.79-2.264-2.44-2.64h-.007c-.234-.053-.49-.083-.77-.083-.066 0-.135.002-.205.006h-.003c-.243.012-.502.046-.78.105-3.12.66-3.282 3.29-3.247 4.167.076-.09.16-.183.25-.277l.067-.064" fill="#E1B27E"/><path d="M87.45 66.89l-.036-.088-.066-.165c-.27-.602-.577-1.06-.837-1.383-.335-.416-.593-.61-.593-.61.027-.165.045-.324.058-.48.018-.205.028-.405.026-.597-.01-1.45-.53-2.513-.913-3.102-.062-.094-.12-.175-.17-.244-.202.185-.405.367-.61.546-3.877 3.393-8.414 5.825-13.475 7.257-3.49.987-7.224 1.503-11.172 1.513l.07.012s-2.304.612-2.66 2.94l.042.018-.006 1.532c.322 2.034 1.415 3.197 2.562 3.737 1.156.284 2.53.44 4.034.44 2.618 0 5.567-.453 8.527-1.308l.014-.005.016-.004c3.95-1.038 9.353-3.888 13.063-7.16.845-.746 1.602-1.513 2.234-2.286l.024-.03.044-.053c-.064-.187-.126-.35-.175-.48" fill="#FFF"/><path fill="#EFCFA5" d="M54.908 48.318c-.09.026-.174.058-.26.087.086-.03.17-.06.26-.086l.055-.018-.054.015h-.002"/><path d="M51.303 51.57c-.087.036-.154.044-.192.01-.137-.063.056-.602.598-1.243-.035-.878.126-3.508 3.247-4.166.278-.058.537-.092.78-.104h.003c.07-.004.14-.006.206-.006.28 0 .535.03.77.083h.005c1.65.376 2.247 1.918 2.44 2.64.538.31.807.62.72.687-.025.066-.11.09-.24.088-.132.085-.42.13-.816.172-.793.085-2.03.158-3.386.516l-.28.073c-2.022.534-3.525 1.39-3.855 1.25zm-1.765-7.864c-.636.84-1.238 1.86-1.76 3.1-.21.5-.408 1.032-.587 1.605 0 0-.098-.393-.157-1.018-.043-.457-.064-1.038-.008-1.677.016-.19.04-.386.07-.584.01-.066.02-.134.034-.202.14-.77.41-1.583.885-2.347.587-.942 1.488-1.808 2.86-2.418.174-.077.354-.15.542-.22 0 0 .887-.29 1.948-.33.078-.002.154-.004.232-.004.208 0 .42.01.632.036.32.038.642.11.944.23 0 0-.827.116-1.98.704-1.07.543-2.42 1.493-3.656 3.128zm19.345-8.58c1.01-.34 1.78-.24 2.368.066.25.13.465.292.65.475l.056.056c.044.047.09.095.13.144.668.782.88 1.76.88 1.76-.24-.22-.477-.413-.713-.582-.232-.166-.46-.31-.685-.432-2.47-1.33-4.5-.15-4.5-.15.62-.893 1.815-1.336 1.815-1.336zM55.58 56.81c.13-.09.26-.18.393-.27l.17-.113c.133-.09.267-.175.402-.263.064-.04.13-.08.194-.123.13-.082.266-.167.404-.25.07-.044.145-.09.218-.133l.406-.24.246-.142c.133-.075.268-.152.406-.228.09-.05.184-.1.277-.15.133-.073.266-.145.403-.217.1-.055.205-.108.31-.16.13-.07.26-.137.397-.204l.345-.17c.13-.064.26-.13.392-.19l.383-.18c.127-.06.254-.118.383-.177.14-.065.285-.128.43-.192.122-.052.243-.107.366-.16l.476-.2c.08-.033.158-.068.237-.1.442-1.7 1.853-5.958 5.073-6.805.345-.094.66-.152.962-.193.074-.01.153-.025.226-.032-.066-.23-.125-.468-.172-.72-.318-1.718.034-3.224.788-3.364.582-.12 1.158.68 1.274.97.288.5.528 1.152.666 1.892.126.677.14 1.314.076 1.856.075.06.14.128.206.193.866.838 1.154 2.112 1.237 3.03.288-.065.583-.128.88-.19.075-.018.15-.034.226-.05l.047-.01c.043-.01.085-.018.13-.027.365-.077.736-.152 1.112-.227h.017c.85-.168 1.73-.33 2.636-.482-.517-.29-.838-.41-.838-.41-2.34-1.054-2.713-1.454-2.958-5.077-.088-1.303-.16-3.023-.3-5.35-.02-.303-.046-.59-.075-.87l-.022-.2c-.03-.264-.066-.522-.107-.77l-.012-.07-.014-.076c-.035-.194-.073-.382-.11-.565-.02-.08-.037-.162-.056-.24-.045-.195-.095-.384-.148-.565-.027-.093-.057-.182-.086-.27-.032-.102-.066-.2-.1-.297-.033-.095-.067-.19-.103-.282v-.002c-.367-.422-.786-.788-1.26-1.085l-.094-.053-.02-.01-.07-.04-.022-.014c-.07-.04-.14-.08-.21-.114-.076-.04-.15-.076-.227-.11-.69-.31-1.437-.467-2.218-.485-.432-.01-.874.023-1.322.096-.21.035-.417.08-.627.13-.547.135-1.1.324-1.655.57-.177.158-.353.318-.532.48l-.455.402-.073.066c-.156.134-.313.267-.47.398l-.08.065c-.158.13-.318.255-.48.376l-.086.063c-.162.12-.33.233-.498.344l-.084.053c-.172.11-.348.213-.527.308l-.073.038c-.185.096-.374.185-.568.263l-.052.02c-.203.08-.41.15-.624.205-.357.096-.72.157-1.087.205-.597.077-1.2.103-1.814.088-.205-.005-.41-.016-.617-.028l-.22-.01c-.537-.038-1.08-.094-1.627-.156l-.69-.08c-.37-.042-.746-.082-1.12-.12-.074-.006-.147-.016-.22-.023-.303.054-.606.123-.91.2l-.066.016c-.877.228-1.748.552-2.597.97-.047.022-.094.042-.14.066-.133.066-.264.137-.394.208-.176.096-.35.196-.525.3-1.214.726-2.365 1.653-3.403 2.777-.42.457-.807.932-1.164 1.42-.548.75-1.017 1.534-1.413 2.34l-.066.133c-.208.437-.396.88-.56 1.326-.06.16-.12.32-.173.48l-.01.03c-.172.523-.313 1.05-.423 1.577l-.016.096c-.015.076-.026.153-.04.23-.044.244-.084.488-.117.732-.03.254-.06.507-.08.76-.003.054-.008.108-.01.163-.01.154-.02.308-.023.46-.015.565.007 1.123.063 1.673.014.138.026.278.045.415.362.873.822 1.642 1.343 2.33 1.978 2.61 4.865 3.96 6.917 4.62.795.24 1.62.44 2.47.598l.025.033h.002l.003-.002.048-.048c.094-.092.188-.184.286-.277l.104-.1c.1-.094.204-.19.31-.284l.106-.097c.107-.095.215-.192.327-.287l.11-.095.346-.288.116-.094c.118-.096.238-.19.36-.287l.126-.098c.124-.094.247-.188.375-.283.047-.035.093-.07.14-.102.125-.094.253-.185.384-.278l.156-.11zM58.4 48.433h.003-.003" fill="#EFCFA5"/><path fill="#EFCFA5" d="M56.496 48.104l-.083.002h.114l-.03-.002M88.617 71.6c-1.274 1.454-2.646 2.663-4.03 3.67-.693.502-1.387.948-2.074 1.355-1.53.904-3.017 1.586-4.342 2.088-2.92 1.11-5.044 1.375-5.044 1.375 1.76.706 3.847.456 5.26.133.97-.218 1.628-.473 1.628-.473.045.61.038 1.175-.005 1.708-.05.59-.148 1.132-.285 1.634l-.01.042v.003c-.174.62-.404 1.176-.677 1.674-.03.053-.058.11-.088.162l.1-.074c.488-.35.968-.72 1.44-1.108l.01-.01c.358-.29.708-.592 1.054-.903.578-.525 1.147-1.073 1.695-1.66l.003-.004c.03-.035.063-.07.096-.105.54-.605 1.04-1.22 1.497-1.84.605-.82 1.138-1.646 1.61-2.466l.036-.06c.114-.202.227-.403.335-.602l.03-.058c.037-.067.067-.132.102-.2.15-.286.298-.57.435-.854l.1-.204c.07-.15.137-.3.204-.446.05-.115.102-.23.15-.345.055-.123.11-.248.162-.37.093-.225.183-.448.27-.668l.096-.258c.065-.172.127-.34.187-.507.027-.078.055-.155.08-.233l.025-.073c.074-.21.145-.42.21-.623-.087.103-.176.2-.263.3M50.746 60.202c-.39.188-.817.408-1.265.662-1.193.678-2.53 1.598-3.67 2.78-.142.147-.282.3-.417.455-.23.265-.448.545-.654.836-.025.033-.05.064-.072.098-.032.045-.06.09-.09.135-.08.116-.154.234-.227.355l-.087.144c-.095.164-.187.33-.273.5-.083.17-.162.342-.236.517-.587 1.403-.82 3.024-.455 4.88v-.035l.007-.072v-.016l.01-.1.004-.025.02-.15.004-.036c.008-.06.017-.122.03-.19v-.002c.01-.067.024-.14.038-.216l.01-.047.05-.242.01-.04c.02-.08.04-.16.063-.244l.01-.04c.026-.09.054-.184.084-.28l.018-.06c.032-.097.065-.196.103-.298l.006-.01c.057-.153.122-.308.192-.464l.082-.178.024-.05c.06-.124.128-.248.2-.37.058-.102.122-.203.188-.303l.064-.093c.053-.077.11-.154.167-.23l.07-.092c.08-.1.162-.198.25-.295l.007-.008s-1.224 4.066-.103 7.03l-.005-.025c0-.006 0-.012-.002-.02l-.008-.06c0-.007 0-.012-.002-.018l-.013-.112v-.017c-.006-.045-.01-.095-.014-.152 0-.006 0-.01-.002-.016l-.01-.19v-.017c-.004-.07-.007-.143-.008-.22v-.02c-.002-.078 0-.16 0-.244v-.022c.002-.09.006-.184.01-.28l.002-.024.003-.05c.008-.11.02-.222.034-.336l.004-.023c.014-.112.032-.225.053-.34l.02-.104.015-.072c.02-.095.045-.19.072-.284l.004-.016c.04-.132.086-.262.137-.39.013-.036.028-.07.042-.103.055-.128.115-.254.186-.375l.002-.005s.02.96.187 2.086c.026.178.057.36.092.543.023.12.045.243.072.364-.074-1.223.005-2.39.196-3.493.052-.304.116-.603.185-.897l.03-.127c.067-.278.14-.55.222-.82.013-.05.03-.1.044-.15.083-.267.17-.53.263-.786l.045-.118c.2-.536.42-1.05.655-1.54l.05-.107c.09-.185.185-.362.277-.54l.073-.14.068-.125c.12-.218.24-.43.364-.637l.058-.098c.13-.213.258-.42.388-.62l.007-.01c.165-.253.33-.495.496-.726.12-.17.24-.333.36-.49l.138-.18c.288-.372.568-.71.83-1.01.787-.902 1.416-1.478 1.637-1.67-.14.054-.303.12-.486.196-.272.115-.59.256-.934.422M72.342 48.85s-.02-.097-.075-.24c-.208-.548-.93-1.808-3.097-1.324-2.265.506-2.805 2.45-2.924 3.106-.024.136-.032.22-.032.22l.07.046c.26-.284.818-.323 1.36-.066.25.117.454.28.604.458.23.275.325.59.217.846-.022.054-.054.102-.092.146 0 0 .093.023.248.048.66.108 2.474.26 3.276-1.094.038-.065.08-.127.112-.198-.2-.073-.34-.335-.38-.663-.02-.157-.02-.328.01-.503.09-.538.408-.888.704-.782M63.07 67.105c-1.445.49-2.714.88-3.7 1.166.057.002.11.002.17.002 1.71 0 4.42-.08 7.637-.682 5.853-1.092 13.384-3.912 19.64-11.143l.016-.028v-.012c-.043-.535-.234-1.487-.998-2.15-.135-.118-.287-.225-.457-.32-.03-.012-.055-.026-.085-.038-.197-.08-.372-.165-.534-.25-.135-.063-.263-.127-.378-.19l-.018-.022c-.355.677-.783 1.332-1.276 1.966-.174.225-.362.443-.55.662-1.727 1.993-4.06 3.764-6.62 5.303-4.26 2.555-9.137 4.477-12.847 5.735M24.47 61.475c-.058.064-.117.128-.17.2l-.056.08c-.06.087-.12.178-.172.273l-.028.047c-.065.12-.125.245-.18.37v.002l-.008.016v.002l-.02.055c-.014.03-.025.063-.038.093-.03.08-.063.156-.09.235l-.002.003v.004l-.003.006-.01.03-.01.03c-.04.124-.08.247-.113.37-.096.34-.164.663-.21.93-.018.096-.032.186-.044.266-.026.172-.042.306-.048.372v.006l-.005.044-.002-.05c-.006-.1-.006-.2-.012-.3-.01-.21-.023-.418-.026-.627-.003-.174.003-.347.007-.522 0-.055 0-.11.002-.164 0-.08.002-.16.005-.24.003-.076.01-.15.015-.225v-.006l.004-.083.002-.02c.006-.093.01-.183.017-.274l.007-.105.005-.062v-.01l.008-.09c.003-.038.01-.074.012-.11.013-.132.03-.264.043-.395l.003-.022c.01-.097.02-.195.032-.292v-.004l.002-.007.003-.03c.027-.198.06-.394.09-.59l.008-.054.01-.055.016-.11c.054-.32.114-.638.18-.948l.01-.04c.058-.263.117-.524.182-.78l.007-.03.09-.334.004-.017.135-.498h.002v-.004l.006-.02c.012-.042.042-.14.088-.286V57.5l.007-.02.053-.17c.028-.094.056-.186.085-.277l.025-.08-.18-.064-.034-.013-.065-.023c-.39-.13-.796-.223-1.21-.278l-.066-.007c-.266-.034-.535-.05-.807-.048-.158 0-.316.007-.475.02-.132.01-.264.026-.397.045-.2.03-.393.07-.585.117-.06.014-.12.033-.178.048-.095.027-.187.056-.28.085-.037.013-.075.023-.11.036-.066.022-.13.045-.194.07-.126.047-.25.1-.37.155-.055.025-.113.048-.167.075-.162.08-.322.167-.476.26-.062.038-.12.08-.18.117-.07.046-.138.094-.207.142l-.072.048c-.074.055-.147.113-.22.17-.068.054-.136.11-.2.167-.08.068-.156.137-.23.208-.048.044-.09.09-.137.136-.12.124-.234.254-.345.385-.056.068-.11.138-.165.208-.097.122-.19.246-.275.375l-.043.064c-.046.07-.086.143-.128.214l-.006.01-.006.01c-.028.05-.06.095-.086.145l-.01.02-.01.02h-.002v.002c-.167.31-.307.632-.422.965-.017.047-.03.095-.046.142-.052.162-.098.326-.138.494-.015.066-.034.13-.047.197v.002h-.002l.054.117c.06.136.123.268.187.396l.02.044.024.045c.066.13.134.256.202.38.208.373.42.705.625.995l.092.13.022.03.027.036c.155.206.3.388.437.546.215.25.4.44.53.564.028.028.053.05.076.072l.052.048.08.07c-.025-.068-.042-.136-.065-.205-.165-.49-.28-.98-.353-1.464l-.004-.028-.01-.057c-.043-.31-.076-.62-.09-.923.047.112.096.22.144.325.073.16.147.315.223.464l.026.053.01.02c.328.632.677 1.154.994 1.57.38.5.713.846.91 1.035l.1.094.087.075c-.19-.52-.317-1.04-.402-1.555-.028-.173-.056-.347-.075-.518-.023-.22-.04-.435-.048-.65.14.35.292.674.448.976l.012.023c.56 1.087 1.184 1.86 1.604 2.312l.048.05c.072.076.136.14.194.198l.106.103c.04.038.07.065.094.086l.05.042-.025-.072c-.025-.073-.05-.145-.073-.218-.085-.26-.152-.52-.21-.78-.04-.173-.077-.346-.104-.52-.026-.163-.047-.325-.064-.487l-.008-.087c-.008-.085-.017-.17-.023-.252l-.002-.052v-.038c-.015-.214-.023-.427-.022-.637.057.13.117.26.177.383.045.094.092.183.138.273l.027.05.027.054c.057.108.114.21.173.312.108.19.217.367.325.533.133.205.265.392.392.563.072.097.142.187.21.273.088.11.17.21.25.3.073.085.14.158.204.227l.048.05c.06.063.116.122.165.17l.105.102c.08.076.14.126.163.147l.015.013.05.025v-.115c-.002-.336.003-.676.01-1.014l.004-.122c.01-.38.025-.76.043-1.127.002-.048.006-.093.007-.14l.002-.025c.002-.042.003-.085.006-.127l.01-.19c.017-.29.035-.57.054-.84l.053-.684.006-.068c0-.034.004-.065.007-.098l.008-.096v-.01l.015-.162v-.014l.014-.14.02-.22v-.02c.007-.055.012-.113.017-.164.008-.074.015-.14.02-.206l.002-.002v-.002l.01-.103v-.006l.01-.092c.007-.068.013-.13.02-.176l.003-.042.003-.016.005-.05.004-.034v-.005l-.004.005-.064.075M74.24 72.015c.533-.262.998-.477 1.353-.687.714-.415 1.092-.68 1.055-.758-.036-.078-.483.04-1.26.32-.387.143-.863.285-1.405.48-.27.1-.57.177-.88.278-.313.095-.64.207-.99.29-.69.186-1.48.376-2.32.58l-1.283.268-1.376.24c-1.886.29-3.986.465-6.16.338-1.145-.058-2.708-.38-3.862-.858l-.042-.018c.356-2.328 2.66-2.94 2.66-2.94l-.07-.012h-.12c-.346 0-.65 0-.91-.004-.19-.002-.353-.004-.49-.004-.133 0-.228.002-.282.005-1.425.08-2.05 1.37-2.253 1.923-.03.08-.055.16-.08.243-.146.488-.214 1.042-.18 1.613.06 1.065.476 2.19 1.41 3.08.624.598 1.636 1.07 2.913 1.382-1.147-.54-2.24-1.703-2.562-3.737 1.27.368 2.71.51 3.787.567 2.31.135 4.493-.087 6.436-.45.482-.102.954-.197 1.41-.3l1.326-.342c.83-.25 1.594-.484 2.308-.737.358-.114.684-.257.995-.384.31-.133.605-.242.87-.377"/><path d="M69.096 45.926c1.183-.12 2.03.155 2.63.634.065-.54.05-1.18-.074-1.855-.14-.74-.38-1.393-.667-1.893-.118-.29-.692-1.09-1.275-.97-.753.14-1.106 1.646-.787 3.365.046.25.106.49.173.72M55.297 49.515c1.362-.382 2.613-.215 3.464-.073.39.065.697.124.894.124.13.002.215-.022.242-.087.086-.068-.183-.38-.72-.688-.107-.06-.223-.122-.35-.18l-.005-.003c-.124-.06-.26-.116-.402-.168l-.004-.002-.01-.002c-.12-.044-.247-.084-.38-.12l-.034-.01c-.13-.036-.267-.067-.408-.094l-.066-.012c-.138-.025-.282-.045-.43-.06l-.08-.007c-.15-.014-.305-.02-.464-.022h-.114c-.07.002-.143.004-.215.008l-.133.01c-.074.005-.15.01-.226.02l-.132.016c-.082.01-.166.024-.25.04-.04.006-.078.012-.117.02-.124.023-.25.05-.377.084l-.053.017c-.09.027-.176.058-.263.086-.09.03-.185.06-.273.092-.096.036-.184.077-.275.115-.08.034-.162.067-.24.103-.09.043-.176.09-.262.135-.07.036-.14.07-.206.108-.087.05-.167.102-.25.154-.057.036-.12.07-.173.11-.084.054-.16.112-.237.17-.047.034-.098.068-.143.104-.082.063-.156.127-.23.192-.034.03-.073.06-.106.09-.08.072-.155.146-.227.218l-.067.065c-.09.092-.174.185-.25.275-.542.64-.735 1.18-.597 1.242.037.035.106.027.19-.01.505-.2 1.807-1.394 3.71-1.98.09-.03.178-.057.27-.082M71.642 50.143c.043.328.18.59.382.663.298.106.612-.246.703-.783.01-.048.012-.094.017-.14.043-.485-.117-.93-.387-1.025-.296-.106-.612.244-.705.782-.03.175-.03.347-.01.503M66.393 51.645c.15.188.362.36.622.484.55.26 1.12.216 1.373-.08.038-.043.07-.092.09-.146.11-.256.016-.57-.216-.846-.15-.18-.354-.34-.602-.458-.544-.257-1.102-.217-1.362.066-.042.047-.08.098-.104.158-.104.247-.016.55.2.82M86.834 56.422v-.012l-.028.053.013-.014.014-.028M87.58 67.425l-.022.03c-.632.772-1.39 1.54-2.235 2.285-3.71 3.273-9.112 6.123-13.063 7.16l-.015.004-.015.005c-2.96.854-5.91 1.306-8.527 1.306-1.505 0-2.878-.155-4.035-.44-1.276-.313-2.29-.783-2.913-1.382-.933-.887-1.348-2.014-1.41-3.08-.033-.57.035-1.124.18-1.613.026-.08.052-.163.08-.242.203-.552.83-1.844 2.253-1.923.054-.003.15-.005.282-.005.137 0 .3.002.49.004.26.003.565.006.912.006l.12-.002c3.947-.01 7.682-.526 11.17-1.513 5.062-1.432 9.6-3.864 13.476-7.257.205-.18.408-.36.61-.545l1.888-3.76c-6.254 7.22-13.78 10.038-19.628 11.13-3.216.6-5.927.68-7.636.68h-.172c-.513 0-.932-.01-1.23-.01-.15 0-.27.003-.36.01-.445.023-.857.13-1.235.302-.77.35-1.388.978-1.814 1.76-.524.963-.756 2.16-.624 3.366.11.993.468 1.988 1.116 2.86.027.035.05.07.078.106.074.096.153.19.235.28.11.125.225.247.348.365 1.424 1.37 4.22 2.172 7.82 2.172 2.434 0 5.237-.373 8.226-1.18 8.766-2.737 12.67-6.164 14.385-8.445.125-.167.24-.327.343-.48.605-.902.844-1.568.927-1.853l.01-.04c.022-.072.03-.11.03-.113l-.044.055" fill="#59473D"/><path d="M71.977 5.034c-.806-.707-1.7-1.206-2.648-1.542-.173-.04-.346-.082-.522-.11-.09-.046-.18-.09-.273-.13-.827-.208-1.687-.307-2.562-.316-4.338-.043-9.018 2.09-11.667 3.523-.146.08-.292.162-.44.247-.222.128-.446.257-.672.39-.38.225-.764.458-1.156.7l-.17.105-.858-.787-.388-.355-.358-.33-3.7-3.39-.35-.32-.053.018-.788.28-.912.322c-.546-.178-1.182-.277-1.904-.28-1.448-.012-3.24.368-5.238 1.145-2 .775-4.21 1.94-6.516 3.452-4.62 3.022-9.634 7.433-14.323 12.85-1.637 1.89-3.144 3.802-4.514 5.702-1.33 1.842-2.53 3.676-3.587 5.47-2.15 3.64-3.715 7.12-4.618 10.166-.602 2.03-.908 3.865-.916 5.405-.007 1.12.143 2.083.423 2.858.09.252.197.477.313.69.24.45.534.827.89 1.137L8.05 54.89l.382.316.018-.026c.085-.124.17-.248.26-.37l.022-.032.098-.128c.084-.11.168-.22.255-.33.054-.068.11-.133.165-.2.054-.063.105-.13.16-.193.025-.03.05-.056.076-.084l.178-.198c.083-.09.168-.182.254-.272.05-.052.1-.104.153-.156l.024-.022c.092-.09.184-.182.278-.27l.178-.166c.096-.09.196-.177.297-.263l.18-.153c.103-.086.208-.17.315-.253.06-.047.12-.095.183-.14.11-.085.223-.165.336-.246.062-.042.12-.086.18-.127l.07-.048.01-.008c.096-.065.195-.126.293-.19l.163-.104.25-.15.22-.126.083-.048c.185-.104.374-.203.566-.297.06-.03.123-.058.184-.088.066-.032.133-.063.2-.093l.077-.038.12-.054.248-.103.06-.025c.097-.04.192-.08.29-.116.09-.035.18-.067.273-.1.112-.04.225-.08.34-.117l.142-.048c.048-.015.097-.028.146-.042.11-.035.224-.068.338-.1.1-.027.2-.052.3-.08.08-.018.16-.04.242-.06.033-.006.066-.012.1-.02.036-.008.07-.017.11-.025l.06-.01c.405-.066.852-.115 1.343-.137l.076-.004c.496-.02 1.038-.004 1.612.048.136.013.273.025.415.042l.068-.17c.234-.565.473-1.12.715-1.664 1.42-3.18 3.01-6 4.682-8.492.57-.85 1.15-1.666 1.734-2.442 2.438-3.234 4.967-5.827 7.318-7.876.522-.455 1.036-.884 1.537-1.286.683-.548 1.344-1.05 1.976-1.504.515-.37 1.01-.71 1.482-1.02.784-.52 1.504-.96 2.14-1.324.195-.113.384-.22.563-.32.28-.153.535-.29.77-.41-.214.002-.43.01-.65.024-.205.014-.413.035-.622.06-.052.005-.105.012-.158.02-.21.026-.423.056-.638.095-.406.075-.82.167-1.24.285-.14.04-.282.082-.424.128 1-.677 2-1.215 2.977-1.646.648-.287 1.287-.527 1.904-.725.852-.272 1.664-.468 2.417-.607.507-.093.986-.16 1.43-.21.45-.05.86-.078 1.234-.095 1.303-.056 2.105.05 2.105.05-.215-.237-.473-.435-.748-.6-.5-.3-1.054-.493-1.537-.618-.19-.05-.37-.09-.53-.12-.124-.023-.24-.042-.337-.056.214-.064.425-.12.633-.174.222-.057.442-.11.66-.156 1.84-.395 3.485-.427 4.734-.346 1.508.1 2.44.364 2.44.364-.26-.385-.612-.698-.988-.952-.274-.185-.56-.34-.83-.465.51.055.995.127 1.456.21 1.223.22 2.275.52 3.11.808.27.093.517.184.74.27l.18.073c.77.31 1.203.544 1.203.544-.17-.41-.464-.78-.792-1.108-.083-.082-.166-.163-.252-.238l.038.012.168.033.218.05c.33.077.832.212 1.43.425.028.01.058.02.087.032l.25.093c.204.08.418.17.637.267.204.09.412.19.623.298.11.055.22.114.328.174.233.128.467.268.7.42.24.156.477.325.708.507.046.036.093.072.138.11.17.137.334.283.496.436.306.288.594.605.858.95.317.414.6.87.83 1.374.01.03.023.058.035.087.106-.145.293-.406.534-.76 2.006-2.943 7.814-12.42 3.07-17.22" fill="#141C26"/><path d="M43.888 6.854l-.315-1.563.583-1.842.304-.108c-.546-.178-1.182-.277-1.904-.28-1.448-.012-3.24.368-5.238 1.145-2 .775-4.21 1.94-6.516 3.452-4.62 3.022-9.634 7.433-14.323 12.85-1.637 1.89-3.144 3.802-4.514 5.702-1.33 1.842-2.53 3.676-3.587 5.47-2.15 3.64-3.715 7.12-4.618 10.166-.602 2.03-.908 3.865-.916 5.405-.007 1.12.143 2.083.423 2.858.09.252.197.477.313.69.24.45.534.827.89 1.137L8.05 54.89l.382.316.018-.026c.085-.124.17-.248.26-.37l.022-.032.098-.128c.084-.11.168-.22.255-.33.054-.068.11-.133.165-.2.054-.063.105-.13.16-.193.025-.03.05-.056.076-.084l.178-.198c.083-.09.168-.182.254-.272.05-.052.1-.104.153-.156l.024-.022c.092-.09.184-.182.278-.27l.178-.166c.096-.09.196-.177.297-.263l.18-.153c.103-.086.208-.17.315-.253.06-.047.12-.095.183-.14.11-.085.223-.165.336-.246.062-.042.12-.086.18-.127l.07-.048.002-.014c.51-2.198 1.38-4.622 2.577-7.18 1.468-3.145 3.425-6.49 5.818-9.876 1.505-2.13 3.18-4.274 5.012-6.392 2.37-2.737 4.824-5.22 7.274-7.41 1.65-1.474 3.298-2.81 4.92-4 .154-.113.308-.23.46-.34.434-.31.864-.608 1.292-.898.933-.63 1.853-1.212 2.756-1.736l-.533-.505-.088-.084-.655-.62L37.19 8.91l-.307-2.833-.04-.037 2.238-.967 4.808 1.78" fill="#3478AD"/><path fill="#4D94C3" d="M44.938 7.244l.125.046-.003-.015-.122-.03"/><path d="M46.215 2.72l-2.06.728.905 3.827-5.98-2.202-2.238.967.04.037 7.775 6.994.06-.05.083-.064c.197-.162.394-.322.594-.48l.208-.17c.288-.227.577-.45.867-.674l-3.305-2.987 4.98 1.743.017-.012c.132-.095.263-.19.396-.283l-.833-3.31 2.43 2.22.024-.018.504-.33.052-.032.08-.053c.03-.018.058-.037.087-.056.07-.046.143-.095.214-.14.015-.01.03-.017.043-.027.24-.152.474-.298.71-.445L46.214 2.72" fill="#FACE56"/><path fill="#4D94C3" d="M44.185 3.57l-.03-.122.03.12"/><path d="M44.156 3.448l.304-.108c-.546-.178-1.182-.277-1.904-.28-1.448-.012-3.24.368-5.238 1.145-2 .775-4.21 1.94-6.516 3.452-4.62 3.022-9.634 7.433-14.323 12.85-1.637 1.89-3.144 3.802-4.514 5.702l7.31 7.062c1.5-2.107 3.157-4.222 4.965-6.31 2.42-2.793 4.92-5.325 7.426-7.565 2.428-2.168 4.857-4.053 7.224-5.626l-1.7-4.86-.307-2.833-.04-.037 2.238-.967 4.808 1.78-.315-1.562.583-1.842" fill="#4D94C3"/><path d="M44.156 3.448l-.583 1.843.315 1.564 1.172.42-.904-3.826M43.165 8.645l4.98 1.743-1.676 1.244-3.305-2.987M47.725 6.784l.833 3.31L50.154 9l-2.43-2.218" fill="#141C26"/><path d="M65.388 3.43c.288-.045.572-.082.852-.11.795-.077 1.55-.07 2.275.022.04.005.08.005.118.01l.01.002.028.004.072.01.066.013c-.09-.044-.18-.087-.273-.128-.827-.208-1.687-.307-2.562-.316-4.338-.043-9.018 2.09-11.667 3.523-.146.08-.292.162-.44.247-.222.128-.446.257-.672.39-.38.225-.764.458-1.156.7l-.17.105c-.234.147-.47.293-.708.445-.014.01-.028.018-.043.027l-.214.14c-.03.02-.057.038-.087.056l-.08.053-.052.033c-.17.11-.335.217-.505.33L50.153 9c-.005.002-.01.006-.015.01l-.125.08-.02.013c-.032.02-.062.042-.093.063-.26.173-.518.35-.776.528-.18.125-.36.25-.54.377l-.028.02-.396.283-.017.012c-.43.31-.857.623-1.282.944l-.133.1-.113.085-.104.08-.044.035c-.29.223-.58.447-.868.674-.07.056-.14.113-.208.17-.2.158-.397.318-.594.48l-.083.065-.06.05c-.55.45-1.09.91-1.63 1.38-.888.772-1.764 1.564-2.624 2.38l-.333.317c-2.25 2.154-4.4 4.433-6.44 6.777-2.157 2.476-4.188 5.024-6.09 7.568-1.037 1.32-1.924 2.496-2.643 3.482-1.444 1.98-2.217 3.19-2.178 3.21.017.013.147-.14.374-.428l-.55.818c3.154-4.275 6.69-8.69 10.548-12.91 2.343-2.563 4.803-5.054 7.37-7.4 1.126-1.026 2.27-2.025 3.436-2.99.373-.31.75-.615 1.127-.916.187-.15.378-.297.566-.446.108-.085.216-.17.323-.252.203-.158.405-.314.61-.47.198-.15.397-.302.598-.452l.314-.233c.254-.19.51-.374.767-.558l.46-.33h.002c.485-.344.973-.68 1.463-1.008l.122-.083.23-.152.305-.204c.04-.025.078-.05.116-.076l.015-.01.207-.133c.015-.008.03-.017.043-.027l.025-.015c.215-.14.43-.276.64-.41.04-.025.08-.05.116-.075l.207-.128c.248-.155.494-.31.738-.458.066-.04.135-.084.2-.125.036-.02.07-.04.105-.062l.208-.125c.287-.172.572-.342.852-.505.256-.15.504-.288.754-.43 1.413-.802 2.748-1.492 3.997-2.064 2.4-1.096 4.504-1.79 6.385-2.095" fill="#FFF"/></g></svg>