<svg width="89" height="100" viewBox="0 0 89 100" xmlns="http://www.w3.org/2000/svg"><title>shopify_logo</title><g fill="none" fill-rule="evenodd"><path d="M40.875 3.648c.554 0 1.113.188 1.647.556-4.116 1.937-8.528 6.815-10.39 16.557l-7.847 2.43c2.183-7.43 7.365-19.542 16.59-19.542zM44.69 7.26c.79 1.98 1.304 4.82 1.304 8.652 0 .196-.002.375-.003.557l-9.925 3.072c1.91-7.376 5.494-10.938 8.626-12.282zm9.475 6.68l-4.805 1.486.002-1.036c0-3.176-.44-5.732-1.148-7.76 2.842.357 4.734 3.59 5.95 7.31zm23.066 5.653c-.068-.5-.506-.778-.87-.808-.36-.03-8.015-.598-8.015-.598s-5.316-5.277-5.9-5.86c-.583-.585-1.723-.408-2.165-.277-.066.02-1.162.357-2.976.918-1.776-5.11-4.91-9.806-10.423-9.806-.15 0-.308.007-.465.016-1.567-2.074-3.51-2.975-5.187-2.975-12.844 0-18.98 16.055-20.904 24.215-4.99 1.546-8.536 2.645-8.988 2.788-2.787.873-2.874.96-3.24 3.586C7.82 32.78.532 89.147.532 89.147L57.328 99.79l30.774-6.66S77.3 20.095 77.232 19.594z" fill="#8DB849"/><path d="M76.36 18.785c-.36-.03-8.015-.598-8.015-.598s-5.316-5.277-5.9-5.86c-.217-.22-.512-.33-.82-.378L57.33 99.787l30.772-6.657S77.3 20.095 77.232 19.594c-.07-.5-.508-.778-.87-.808" fill="#5A873E"/><path d="M46.88 35.79l-3.793 11.286s-3.325-1.774-7.4-1.774c-5.975 0-6.275 3.75-6.275 4.694 0 5.155 13.437 7.13 13.437 19.206 0 9.5-6.026 15.617-14.15 15.617-9.75 0-14.736-6.07-14.736-6.07l2.61-8.624s5.126 4.4 9.45 4.4c2.825 0 3.976-2.224 3.976-3.85 0-6.725-11.025-7.025-11.025-18.074 0-9.3 6.674-18.3 20.15-18.3 5.19 0 7.756 1.487 7.756 1.487" fill="#FFF"/></g></svg>