<svg width="110" height="100" viewBox="0 0 110 100" xmlns="http://www.w3.org/2000/svg" xmlns:xlink="http://www.w3.org/1999/xlink"><title>sketch_icon</title><defs><path d="M5.242 27.505l14.033-17.247 16.58-7.032H55.04v90.726L5.242 27.505zm99.597 0L90.804 10.258l-16.58-7.032H55.04v90.726l49.8-66.447z" id="a"/></defs><g fill="none" fill-rule="evenodd"><path d="M0 26.76L15.454 7.75 33.714 0h21.125v100L0 26.76zm109.677 0L94.224 7.75 75.964 0H54.84v100l54.837-73.24z" fill="#F56423"/><mask id="b" fill="#fff"><use xlink:href="#a"/></mask><use fill="#FFF" xlink:href="#a"/><path d="M18.696 10.074l15.442 8.545h41.88l16.044-9.054" stroke="#F56423" stroke-width="3" mask="url(#b)"/><path d="M75.858 18.616l14.9 19.11 16.943-12.078M2.47 18.616l14.902 19.11 16.942-12.078M90.945 37.497L54.293 95.63M55.864 37.497L19.214 95.63M19.84 37.702h70.745" stroke="#F56423" stroke-width="3" mask="url(#b)"/></g></svg>