<svg width="100" height="100" viewBox="0 0 100 100" xmlns="http://www.w3.org/2000/svg"><title>wordpress_logo</title><path d="M50 7.006c11.216 0 21.428 4.298 29.083 11.335-3.75-.1-7.495 2.13-7.65 7.238-.315 10.326 12.346 12.523 5.522 33.29l-5.643 17.18-15.37-45.276c-.238-.7.04-1.1.9-1.1h4.346c.226 0 .41-.192.41-.428V26.67c0-.236-.185-.44-.41-.43-8.23.36-16.41.363-24.54 0-.225-.01-.41.194-.41.43v2.574c0 .236.184.43.41.43h4.37c.97 0 1.243.322 1.472.95l6.317 17.27-9.5 28.685L23.69 30.583c-.195-.575.04-.91.596-.91h4.978c.226 0 .41-.194.41-.43V26.67c0-.236-.185-.44-.41-.43-5.223.28-10.466.334-15.35.385C21.58 14.818 34.88 7.005 50 7.005zm37.814 22.522c3.304 6.087 5.18 13.06 5.18 20.472 0 16.263-9.037 30.42-22.36 37.723l13.412-37.977c2.076-5.88 4.004-13.822 3.768-20.218zM64.394 90.52c-4.5 1.6-9.345 2.473-14.394 2.473-4.35 0-8.546-.648-12.503-1.85l13.245-37.957L64.395 90.52zm-32.79-1.655C17.064 81.97 7.006 67.158 7.006 50c0-6.36 1.384-12.398 3.864-17.83l20.734 56.695zM50 2.972c25.968 0 47.028 21.06 47.028 47.028S75.968 97.027 50 97.027 2.972 75.967 2.972 50C2.972 24.032 24.032 2.972 50 2.972zM50 0c27.61 0 50 22.39 50 50s-22.39 50-50 50S0 77.61 0 50 22.39 0 50 0z" fill="#1F1A17" fill-rule="evenodd"/></svg>