<?xml version="1.0" standalone="no"?><!DOCTYPE svg PUBLIC "-//W3C//DTD SVG 1.1//EN" "http://www.w3.org/Graphics/SVG/1.1/DTD/svg11.dtd"><svg width="100%" height="100%" viewBox="0 0 50 50" version="1.1" xmlns="http://www.w3.org/2000/svg" xmlns:xlink="http://www.w3.org/1999/xlink" xml:space="preserve" style="fill-rule:evenodd;clip-rule:evenodd;stroke-linejoin:round;stroke-miterlimit:1.41421;"><g id="Layer1"><g><path d="M24.9346,4.25908c11.9392,0 21.6178,9.67862 21.6178,21.6178c0,11.9392 -9.67862,21.6178 -21.6178,21.6178c-11.9392,0 -21.6178,-9.67862 -21.6178,-21.6178c0,-11.9392 9.67862,-21.6178 21.6178,-21.6178ZM25.8947,39.5304l-1.92028,0l0,5.76083l1.92028,0l0,-5.76083ZM33.9445,43.1343l1.66301,-0.960138l-2.88041,-4.98902l-1.66301,0.960138l2.88041,4.98902ZM18.8051,38.1452l-1.66301,-0.960138l-2.88041,4.98902l1.66301,0.960138l2.88041,-4.98902ZM13.3578,33.4009l-0.960138,-1.66301l-4.98902,2.88041l0.960138,1.66301l4.98902,-2.88041ZM41.5003,36.2813l0.960138,-1.66301l-4.98902,-2.88041l-0.960138,1.66301l4.98902,2.88041ZM35.0229,29.7928l-1.54192,0l0,2.93341l-2.62315,0l0,-2.93341l-5.39673,0l0,-2.34109l5.01125,-8.27373l3.00863,0l0,8.51818l1.54192,0l0,2.09664ZM30.8578,27.6962l0,-5.88563l-3.41291,5.88563l3.41291,0ZM44.6174,26.5685l0,-1.92028l-5.76083,0l0,1.92028l5.76083,0ZM11.0126,26.5685l0,-1.92028l-5.76083,0l0,1.92028l5.76083,0ZM15.4762,30.0466c0.382347,-0.908857 1.28494,-1.87099 2.70777,-2.8864c1.23479,-0.883785 2.03396,-1.51685 2.3975,-1.8992c0.55785,-0.595458 0.836775,-1.24733 0.836775,-1.95561c0,-0.576654 -0.159833,-1.05615 -0.4795,-1.4385c-0.319667,-0.382347 -0.777229,-0.57352 -1.37269,-0.57352c-0.814837,0 -1.36955,0.303997 -1.66415,0.911991c-0.169235,0.351007 -0.269523,0.908857 -0.300863,1.67355l-2.60434,0c0.0438758,-1.15958 0.253853,-2.09664 0.629932,-2.81119c0.714549,-1.36015 1.98381,-2.04023 3.8078,-2.04023c1.44163,0 2.58867,0.399584 3.44112,1.19875c0.852445,0.799167 1.27867,1.85689 1.27867,3.17316c0,1.00914 -0.300863,1.90546 -0.902589,2.68896c-0.394883,0.520242 -1.04362,1.10003 -1.94621,1.73936l-1.07182,0.761559c-0.670674,0.476366 -1.1298,0.821105 -1.37739,1.03422c-0.247585,0.213111 -0.455995,0.460696 -0.625231,0.742755l5.95144,0l0,2.35989l-9.33615,0c0.0250719,-0.977804 0.235049,-1.87099 0.629932,-2.67956ZM42.4605,16.5984l-0.960138,-1.66301l-4.98902,2.88041l0.960138,1.66301l4.98902,-2.88041ZM12.3977,19.4789l0.960138,-1.66301l-4.98902,-2.88041l-0.960138,1.66301l4.98902,2.88041ZM35.6075,9.04259l-1.66301,-0.960138l-2.88041,4.98902l1.66301,0.960138l2.88041,-4.98902ZM17.1421,14.0316l1.66301,-0.960138l-2.88041,-4.98902l-1.66301,0.960138l2.88041,4.98902ZM25.8947,5.92552l-1.92028,0l0,5.76083l1.92028,0l0,-5.76083Z" style="fill:#1b716f;"/></g></g></svg>