<svg width="100%" height="100%" viewBox="0 0 166 108" version="1.1" xmlns="http://www.w3.org/2000/svg" xmlns:xlink="http://www.w3.org/1999/xlink" xml:space="preserve" style="fill-rule:evenodd;clip-rule:evenodd;stroke-linejoin:round;stroke-miterlimit:1.41421;"><g id="Layer1"><g id="AtticLogo"><text x="1.67318px" y="102.45px" style="font-family:Helvetica;font-size:14.2985px;fill:#fff;">S<tspan x="10.5486px 19.4239px 29.0335px 38.6431px 48.2527px 57.128px 60.825px 69.7004px 78.5758px 85.9762px 94.1044px 97.8014px 106.677px 114.805px 125.155px 134.765px 143.64px 153.99px " y="102.45px 102.45px 102.45px 102.45px 102.45px 102.45px 102.45px 102.45px 102.45px 102.45px 102.45px 102.45px 102.45px 102.45px 102.45px 102.45px 102.45px 102.45px ">ECURE SELF STORAGE</tspan></text><rect x="112.497" y="27.9359" width="8.46191" height="8.46191" style="fill:#f7901e;"/><text x="0.252736px" y="83.1865px" style="font-family:Helvetica;font-size:50.4248px;font-weight:700;fill:#fff;">A<tspan x="40.6533px 74.8259px 108.998px 124.541px " y="83.1865px 83.1865px 83.1865px 83.1865px ">TTIC</tspan></text><path d="M161.011,42.3013l-10.5994,-8.39634l0,-17.9758l-11.4898,0l0,8.29687l-1.67355,0.755079l-20.8776,-18.4266l-43.9046,35.7303l-2.52483,-3.10246l46.5343,-37.8704l18.4462,16.2807l0,-5.66347l19.4898,0l0,20.0415l9.08318,7.19524l-2.48374,3.13545Z" style="fill:#fff;"/></g></g></svg>