<?xml version="1.0" standalone="no"?><!DOCTYPE svg PUBLIC "-//W3C//DTD SVG 1.1//EN" "http://www.w3.org/Graphics/SVG/1.1/DTD/svg11.dtd"><svg width="100%" height="100%" viewBox="0 0 50 50" version="1.1" xmlns="http://www.w3.org/2000/svg" xmlns:xlink="http://www.w3.org/1999/xlink" xml:space="preserve" style="fill-rule:evenodd;clip-rule:evenodd;stroke-linejoin:round;stroke-miterlimit:1.41421;"><g id="Layer1"><g><path d="M37.4577,23.7065l3.12462,0l5.68434e-14,21.7044c0,1.11432 -0.903334,2.01765 -2.01765,2.01765l-26.9106,0c-1.11432,0 -2.01765,-0.903334 -2.01765,-2.01765l0,-5.27576l-2.84217e-14,-16.4287l3.61487,0l0,-7.4276c0,-6.68441 5.41879,-12.1032 12.1032,-12.1032c6.68441,0 12.1032,5.41879 12.1032,12.1032l0,7.4276ZM26.439,35.8466l1.10877,5.39912l-4.87682,0l1.10877,-5.39912c-1.17899,-0.513498 -2.00324,-1.68903 -2.00324,-3.05707c0,-1.8407 1.49218,-3.33288 3.33288,-3.33288c1.8407,0 3.33288,1.49218 3.33288,3.33288c0,1.36804 -0.824246,2.54358 -2.00324,3.05707ZM16.2045,23.7065l18.2999,0l0,-7.11897c0,-5.05339 -4.09658,-9.14997 -9.14997,-9.14997c-5.05339,0 -9.14997,4.09658 -9.14997,9.14997l0,7.11897Z" style="fill:#1b716f;"/></g></g></svg>