<svg width="149" height="149" viewBox="0 0 149 149" xmlns="http://www.w3.org/2000/svg"><title>appstore_logo</title><g stroke="#D9B37E" fill="none" fill-rule="evenodd"><circle cx="74.5" cy="74.5" r="74.5"/><circle cx="75" cy="75" r="70"/><path d="M103.262 79.924c-3.05 1.753-6.09 3.502-9.22 5.303-.503-.833-1.006-1.64-1.483-2.464-2.62-4.514-5.238-9.028-7.845-13.548-2.375-4.117-4.728-8.247-7.103-12.363-2.565-4.442-5.153-8.87-7.712-13.314-.487-.846-.98-1.71-1.3-2.623-.367-1.04.12-1.99.793-2.755 1.3-1.476 2.914-2.527 4.835-2.993 1.812-.44 3.252-.066 4.243 1.77 1.76 3.256 3.697 6.417 5.55 9.624 1.665 2.88 3.308 5.77 4.974 8.648 2.593 4.48 5.203 8.947 7.792 13.43 2.165 3.746 4.308 7.506 6.476 11.286 0 0-2.168-3.78 0 0zm-56.92 20.644l-9.246-5.334 21.898-37.96c3.092 1.783 6.144 3.543 9.252 5.337L46.343 100.57s7.32-12.686 0 0zM91.666 84.09H57.56c.89-1.55 1.745-3.046 2.61-4.538 1.116-1.922 2.23-3.845 3.377-5.75.12-.198.46-.377.696-.378 6.94-.02 13.878-.02 20.817 0 .26.002.634.195.76.41 1.853 3.18 3.675 6.375 5.5 9.57.113.196.205.405.345.687 0 0-.14-.28 0 0zm21.58 30.796c-.245-.786-.448-1.49-.687-2.18-.26-.75-.505-1.507-.84-2.22-.726-1.543-2.238-2.058-3.656-2.684-3.472-1.53-5.614-4.16-6.346-7.867-.206-1.045-.164-2.15-.136-3.226.01-.32.285-.756.567-.924 2.12-1.258 4.265-2.47 6.42-3.667.195-.11.557-.092.763.016 3.81 2.004 6.295 5.058 7.232 9.285.73 3.295.245 6.49-1.028 9.56-.513 1.238-1.27 2.377-1.925 3.557-.055.097-.166.16-.365.35 0 0 .2-.19 0 0zM28 84.026V73.41h20.237c-.436.79-.842 1.55-1.268 2.296-1.52 2.67-3.043 5.338-4.584 7.996-.104.18-.37.377-.56.378-4.55.017-9.1.01-13.65.005-.042 0-.085-.027-.175-.06 0 0 .09.033 0 0zm73.215-10.617h20.01v10.633c-.163.014-.344.045-.525.045-4.23.003-8.46.008-12.692-.012-.254-.002-.626-.145-.745-.34-2.003-3.323-3.975-6.664-5.95-10.003-.046-.075-.054-.173-.098-.324 0 0 .044.15 0 0zm7.958 16.512l-9.292 5.305-5.145-8.825c2.782-1.592 5.572-3.185 8.358-4.787.92-.528.917-.542 1.438.35 1.533 2.623 3.063 5.247 4.643 7.957 0 0-1.58-2.71 0 0zM69.146 61.364l-9.313-5.324c1.144-1.953 2.237-3.91 3.422-5.81.686-1.1 1.874-1.41 3.052-1.184 2.405.46 4.45 1.63 5.897 3.64.685.948.816 2.002.166 3.094-1.1 1.843-2.147 3.713-3.224 5.584 0 0 1.077-1.87 0 0zM36.43 96.818l9.08 5.224C41 106.358 36.534 110.637 31.98 115l4.45-18.182s-1.49 6.09 0 0z"/></g></svg>