<svg viewBox="0 0 149 149" xmlns="http://www.w3.org/2000/svg"><g fill="none" stroke="#D9B37E"><circle cx="74.5" cy="74.5" r="74.5"/><circle cx="75" cy="75" r="70"/><path d="M51.257 108.575L46.1 50.722h56.676l-5.163 57.844L74.403 115l-23.146-6.424z"/><path d="M74.425 69.643H64.4l.648 7.266h25.858l-.173 1.904-1.667 18.68-.107 1.2-14.522 4.024-.033.01-14.534-4.035-.993-11.14H66l.505 5.658 7.902 2.135.007-.002 7.914-2.137.824-9.202h-24.59L56.816 64.45l-.17-1.903h35.54l-.17 1.904-.322 3.598-.142 1.595H74.426zM51.372 35h3.606v3.563h3.298V35h3.606v10.788h-3.606v-3.613h-3.298v3.613h-3.606V35zM66.624 38.578H63.45V35h9.956v3.578H70.23v7.21h-3.606v-7.21zM74.986 35h3.76l2.313 3.79L83.37 35h3.76v10.788h-3.59V40.44l-2.482 3.837h-.062l-2.483-3.836v5.348h-3.528V35zM88.925 35h3.607v7.222h5.07v3.566h-8.677V35z"/></g></svg>