<svg width="149" height="149" viewBox="0 0 149 149" xmlns="http://www.w3.org/2000/svg"><title>shopify_logo</title><g stroke="#D9B37E" fill="none" fill-rule="evenodd"><circle cx="74.5" cy="74.5" r="74.5"/><circle cx="75" cy="75" r="70"/><path d="M71.814 37.918c.444 0 .89.15 1.318.445-3.293 1.55-6.823 5.452-8.313 13.246-2.18.673-4.31 1.332-6.278 1.942 1.746-5.944 5.892-15.634 13.272-15.634zm3.053 2.89c.632 1.583 1.042 3.855 1.042 6.922 0 .156-.002.3-.003.445-2.5.774-5.217 1.615-7.94 2.46 1.528-5.902 4.394-8.752 6.9-9.827zm7.58 5.343c-1.142.355-2.44.756-3.845 1.19l.002-.828c0-2.54-.352-4.586-.92-6.208 2.275.286 3.788 2.87 4.762 5.847zm18.452 4.524c-.056-.4-.407-.622-.697-.646-.29-.024-6.413-.478-6.413-.478s-4.252-4.222-4.72-4.69c-.466-.466-1.378-.325-1.732-.22-.053.015-.93.286-2.38.734-1.42-4.087-3.928-7.844-8.34-7.844-.12 0-.246.005-.372.012-1.254-1.66-2.808-2.38-4.15-2.38-10.274 0-15.183 12.845-16.722 19.372-3.993 1.237-6.83 2.117-7.19 2.23-2.23.7-2.3.77-2.593 2.87-.22 1.59-6.05 46.684-6.05 46.684l45.436 8.513 24.62-5.325s-8.643-58.43-8.697-58.83z"/><path d="M100.203 50.028c-.29-.024-6.413-.478-6.413-.478s-4.252-4.222-4.72-4.69c-.174-.174-.41-.263-.656-.3l-3.435 70.27 24.616-5.325s-8.643-58.43-8.697-58.83c-.056-.4-.407-.623-.697-.647M76.62 63.63l-3.036 9.03s-2.66-1.42-5.92-1.42c-4.78 0-5.02 3-5.02 3.757 0 4.124 10.75 5.704 10.75 15.364 0 7.6-4.82 12.495-11.32 12.495-7.8 0-11.788-4.854-11.788-4.854l2.088-6.9s4.1 3.52 7.56 3.52c2.26 0 3.18-1.78 3.18-3.08 0-5.38-8.82-5.62-8.82-14.46 0-7.44 5.34-14.64 16.12-14.64 4.153 0 6.205 1.19 6.205 1.19"/></g></svg>