<svg width="140" height="126" viewBox="0 0 140 126" xmlns="http://www.w3.org/2000/svg"><g fill="#fff"><path d="M77.389.766c-21.582 0-40.637 11.021-51.838 27.729h1.732c11.012-15.881 29.36-26.308 50.107-26.308 33.606 0 60.947 27.341 60.947 60.947 0 33.607-27.341 60.947-60.947 60.947-24.15 0-45.063-14.119-54.921-34.535h-1.568c9.962 21.222 31.536 35.955 56.489 35.955 34.389 0 62.367-27.978 62.367-62.367 0-34.389-27.978-62.367-62.367-62.367"/><path d="M44.378 47.84h-8.867c.076-.531.152-1.213.152-1.668 0-3.637-2.654-4.926-10.08-4.926-10.534 0-12.808 4.093-15.232 17.734-.757 4.471-1.289 7.882-1.289 10.458 0 5.684 2.653 7.276 9.625 7.276 12.354 0 13.036-5.154 14.778-14.626h-12.58l1.364-7.73h21.067l-5.305 29.859h-7.047l.682-3.789c-.455.304-5.078 4.395-14.778 4.395-13.337 0-16.825-5.304-16.825-13.943 0-3.411.531-7.428 1.365-11.974 2.803-15.915 5.455-25.766 25.464-25.766 10.154 0 17.808 2.5 17.808 10.988 0 1.137-.075 2.501-.302 3.714"/><path d="M108.992 65.014c0 3.46-.966 9.576-3.3 12.07-1.69 1.771-4.185 2.494-7.967 2.494-5.391 0-7.886-1.69-7.886-6.357 0-3.46.965-8.047 3.46-10.541 1.892-1.891 4.639-2.773 8.456-2.81h.783c4.44.07 6.453 1.045 6.453 5.143zm11.668-18.509c0-.161.241-.724.241-2.253 0-8.69-7.162-11.266-15.772-11.266-2.655 0-10.219-.241-15.369 4.909-3.249 3.249-4.803 8.229-5.928 13.766h-33.804l-5.632 31.705h8.851c.805-3.219 2.254-5.391 9.817-5.391 5.553 0 7.403 1.046 7.403 5.07 0 3.379-1.126 9.898-3.379 12.312-1.69 1.771-4.265 2.334-8.531 2.334-5.552 0-7.644-.805-7.644-3.621 0-.483.08-.966.161-1.529h-8.932c-.161 1.046-.241 1.932-.241 2.817 0 8.53 8.048 10.621 16.577 10.621 6.92 0 11.507-1.126 14.646-4.023 4.506-4.184 6.518-14.323 6.518-20.519 0-7.001-3.219-11.668-13.198-11.668-3.46 0-8.69.403-11.345 2.736l2.252-12.634h25.021l-.095.557c-.644 3.54-1.448 10.541-1.448 13.358 0 10.058 5.552 14.082 15.53 14.082 7.403 0 12.232-1.609 15.45-4.747 4.587-4.426 6.357-13.278 6.357-19.635 0-8.29-5.026-11.63-12.991-11.812l.002-.011h-.421l-.269-.006-.841.006h-10.44c.891-4.27 1.559-6.298 3.474-8.214 1.932-1.931 5.633-2.253 8.208-2.253 4.828 0 7.001 1.046 7.001 3.942 0 .403-.081.886-.161 1.368h8.933z"/></g></svg>