<?xml version="1.0" encoding="UTF-8" standalone="no"?>
<svg width="117px" height="100px" viewBox="0 0 117 100" version="1.1" xmlns="http://www.w3.org/2000/svg" xmlns:xlink="http://www.w3.org/1999/xlink" xmlns:sketch="http://www.bohemiancoding.com/sketch/ns">
    <!-- Generator: Sketch 3.3.3 (12072) - http://www.bohemiancoding.com/sketch -->
    <title>appstore_logo</title>
    <desc>Created with Sketch.</desc>
    <defs></defs>
    <g id="Assets" stroke="none" stroke-width="1" fill="none" fill-rule="evenodd" sketch:type="MSPage">
        <g id="Icons" sketch:type="MSArtboardGroup" transform="translate(-919.000000, -182.000000)" fill="#4990E2">
            <g id="appstore_logo" sketch:type="MSLayerGroup" transform="translate(919.000000, 182.000000)">
                <path d="M94.0768831,56.1547323 C90.2664454,58.3460015 86.4662554,60.532143 82.5516328,62.7840909 C81.9239609,61.7422979 81.2954351,60.7329808 80.6993604,59.7040073 C77.4252192,54.0617454 74.151932,48.4186288 70.8931623,42.7686752 C67.9247443,37.6220982 64.9836534,32.4601379 62.0143814,27.3144155 C58.8085582,21.7627443 55.5736999,16.2281657 52.3747085,10.6722213 C51.7666781,9.61504496 51.1501079,8.53650292 50.7487396,7.39386369 C50.2910088,6.09311806 50.8981852,4.90689274 51.7410588,3.95056267 C53.3670277,2.10541825 55.3832634,0.791853178 57.7854958,0.208996069 C60.0502382,-0.340530502 61.8504181,0.126097037 63.0886823,2.41992179 C65.2868146,6.49137526 67.7086885,10.442326 70.0255234,14.4513916 C72.1058072,18.0502351 74.1604717,21.6627527 76.2424634,25.259887 C79.4832996,30.8585628 82.7463391,36.4435646 85.9820514,42.0456589 C88.6882991,46.7298815 91.3672195,51.4294875 94.0768831,56.1547323 C94.0768831,56.1547323 91.3672195,51.4294875 94.0768831,56.1547323 Z M22.9287349,81.9602273 C19.0390588,79.7157694 15.2406736,77.5251991 11.3697676,75.2927163 C20.4945945,59.4745919 29.5972387,43.6949585 38.7425421,27.8409091 C42.6074758,30.0708258 46.4220716,32.2716604 50.3074817,34.5135522 C41.1766825,50.3368088 32.0800107,66.101901 22.9287349,81.9602273 C22.9287349,81.9602273 32.0800107,66.101901 22.9287349,81.9602273 Z M79.5818216,61.3636364 L36.9492878,61.3636364 C38.0630662,59.426132 39.1307572,57.554407 40.2129571,55.6895163 C41.6075271,53.2872843 43.0003902,50.8833436 44.4342198,48.5041771 C44.5844305,48.2547276 45.0068982,48.0309066 45.3039057,48.0300523 C53.9777214,48.0052782 62.6515371,48.0044239 71.3253528,48.0317609 C71.6496714,48.0326151 72.1173729,48.2735218 72.2744114,48.5434739 C74.5915825,52.5158705 76.8686404,56.5113326 79.1516727,60.5033776 C79.2916418,60.7502642 79.4060068,61.0108192 79.5818216,61.3636364 C79.5818216,61.3636364 79.4060068,61.0108192 79.5818216,61.3636364 Z M106.556451,99.8579545 C106.25013,98.8749681 105.996859,97.9944651 105.697383,97.1310426 C105.373949,96.1958817 105.066772,95.2487645 104.64665,94.356305 C103.740521,92.4287634 101.850399,91.7848262 100.0775,91.0025363 C95.7376644,89.0886592 93.0594927,85.8023587 92.1448072,81.1692559 C91.8872578,79.8625928 91.9394522,78.4807752 91.9753893,77.1365348 C91.9865127,76.7368496 92.331338,76.1919796 92.6838641,75.9818887 C95.3329439,74.4096228 98.0153938,72.8937228 100.708967,71.3983195 C100.952826,71.262529 101.405463,71.2847337 101.663012,71.4196702 C106.424682,73.9253888 109.530677,77.7420408 110.702911,83.0267672 C111.615886,87.143183 111.008377,91.1374728 109.417731,94.9746214 C108.775997,96.5229745 107.828797,97.9457854 107.010799,99.4206921 C106.944059,99.5428181 106.804589,99.6230968 106.556451,99.8579545 C106.556451,99.8579545 106.804589,99.6230968 106.556451,99.8579545 Z M0.00109190173,61.2829072 L0.00109190173,48.0113636 L25.2963953,48.0113636 C24.7515181,49.0008073 24.2434222,49.9483471 23.7113758,50.882204 C21.8107209,54.2191177 19.9083554,57.5551762 17.9820392,60.8775518 C17.8528767,61.101609 17.5218446,61.3487561 17.2840489,61.3496113 C11.5966259,61.371846 5.90920296,61.362439 0.221779994,61.3564528 C0.167891041,61.3564528 0.114002089,61.3222455 0.00109190173,61.2829072 C0.00109190173,61.2829072 0.114002089,61.3222455 0.00109190173,61.2829072 Z M91.518931,48.0113636 L116.530018,48.0113636 L116.530018,61.3038753 C116.327654,61.3217921 116.101383,61.3601851 115.875112,61.3601851 C110.587195,61.3635978 105.298424,61.3704232 100.010507,61.3448279 C99.6920199,61.3431215 99.2275235,61.1639541 99.0789529,60.9182389 C96.5745996,56.7658221 94.1103774,52.5895162 91.6401783,48.4166231 C91.5838239,48.3219204 91.5735777,48.199916 91.518931,48.0113636 C91.518931,48.0113636 91.5735777,48.199916 91.518931,48.0113636 Z M101.466522,68.6526142 C97.5981016,70.8611199 93.7673965,73.0483408 89.8518313,75.2840909 C87.6840413,71.5660708 85.5505383,67.9093508 83.4187496,64.2526307 C86.8962996,62.2629323 90.3841355,60.2715311 93.8659713,58.2690619 C95.01544,57.6083832 95.0120113,57.5913554 95.6643198,58.7075277 C97.5792438,61.9853792 99.490739,65.2649334 101.466522,68.6526142 C101.466522,68.6526142 99.490739,65.2649334 101.466522,68.6526142 Z M51.4322446,32.9545455 C47.5130878,30.7144362 43.6754372,28.5203567 39.7914567,26.2998527 C41.2208165,23.8585769 42.5875452,21.4121867 44.0692404,19.0365458 C44.9263414,17.6633282 46.4114685,17.2763382 47.8837261,17.5576305 C50.8900145,18.1321486 53.4458744,19.5957207 55.2553099,22.1060409 C56.1106951,23.2925828 56.2745652,24.6103944 55.462078,25.975088 C54.0893436,28.2791273 52.7783823,30.6164102 51.4322446,32.9545455 C51.4322446,32.9545455 52.7783823,30.6164102 51.4322446,32.9545455 Z M10.5377525,77.2727273 C14.3647242,79.4744558 18.1022608,81.6257762 21.8857926,83.8027279 C16.253083,89.1972619 10.668924,94.5456596 4.97488751,100 C6.84110051,92.3721254 8.67409475,84.8843687 10.5377525,77.2727273 C10.5377525,77.2727273 8.67409475,84.8843687 10.5377525,77.2727273 Z" sketch:type="MSShapeGroup"></path>
            </g>
        </g>
    </g>
</svg>