<?xml version="1.0" encoding="UTF-8" standalone="no"?>
<svg width="71px" height="100px" viewBox="0 0 71 100" version="1.1" xmlns="http://www.w3.org/2000/svg" xmlns:xlink="http://www.w3.org/1999/xlink" xmlns:sketch="http://www.bohemiancoding.com/sketch/ns">
    <!-- Generator: Sketch 3.3.3 (12072) - http://www.bohemiancoding.com/sketch -->
    <title>html5_logo</title>
    <desc>Created with Sketch.</desc>
    <defs></defs>
    <g id="Assets" stroke="none" stroke-width="1" fill="none" fill-rule="evenodd" sketch:type="MSPage">
        <g id="Icons" sketch:type="MSArtboardGroup" transform="translate(-71.000000, -182.000000)">
            <g id="html5_logo" sketch:type="MSLayerGroup" transform="translate(71.000000, 182.000000)">
                <path d="M6.57109375,91.9681641 L0.123632812,19.6523438 L70.9701172,19.6523438 L64.5158203,91.9568359 L35.5035156,100 L6.57109375,91.9681641 Z" id="Shape" fill="#E44D26" sketch:type="MSShapeGroup"></path>
                <path d="M35.546875,93.8521484 L58.9902344,87.3527344 L64.5058594,25.5652344 L35.546875,25.5652344 L35.546875,93.8521484 Z" id="Shape" fill="#F16529" sketch:type="MSShapeGroup"></path>
                <path d="M35.546875,52.3861328 L23.8105469,52.3861328 L23,43.3039062 L35.546875,43.3039062 L35.546875,34.4345703 L35.5162109,34.4345703 L13.3070312,34.4345703 L13.5193359,36.8140625 L15.6992187,61.2552734 L35.546875,61.2552734 L35.546875,52.3861328 Z" id="Shape" fill="#EBEBEB" sketch:type="MSShapeGroup"></path>
                <path d="M35.546875,75.4205078 L35.5080078,75.4308594 L25.6302734,72.7636719 L24.9988281,65.6900391 L20.1990234,65.6900391 L16.0955078,65.6900391 L17.3380859,79.6160156 L35.5060547,84.6595703 L35.546875,84.6482422 L35.546875,75.4205078 Z" id="Shape" fill="#EBEBEB" sketch:type="MSShapeGroup"></path>
                <path d="M6.71523437,0 L11.2224609,0 L11.2224609,4.453125 L15.3455078,4.453125 L15.3455078,0 L19.8529297,0 L19.8529297,13.4851562 L15.3457031,13.4851562 L15.3457031,8.96953125 L11.2226562,8.96953125 L11.2226562,13.4851562 L6.71542969,13.4851562 L6.71542969,0 L6.71523437,0 Z" id="Shape" fill="#000000" sketch:type="MSShapeGroup"></path>
                <path d="M25.7800781,4.471875 L21.8121094,4.471875 L21.8121094,0 L34.2574219,0 L34.2574219,4.471875 L30.2876953,4.471875 L30.2876953,13.4851563 L25.7802734,13.4851563 L25.7802734,4.471875 L25.7800781,4.471875 Z" id="Shape" fill="#000000" sketch:type="MSShapeGroup"></path>
                <path d="M36.2326172,0 L40.9324219,0 L43.8234375,4.73828125 L46.7115234,0 L51.4130859,0 L51.4130859,13.4851562 L46.9244141,13.4851562 L46.9244141,6.80117188 L43.8234375,11.5958984 L43.7458984,11.5958984 L40.6427734,6.80117188 L40.6427734,13.4851563 L36.2326172,13.4851563 L36.2326172,0 L36.2326172,0 Z" id="Shape" fill="#000000" sketch:type="MSShapeGroup"></path>
                <path d="M53.65625,0 L58.1648438,0 L58.1648438,9.02773437 L64.5033203,9.02773437 L64.5033203,13.4851562 L53.65625,13.4851562 L53.65625,0 L53.65625,0 Z" id="Shape" fill="#000000" sketch:type="MSShapeGroup"></path>
                <path d="M35.5162109,52.3861328 L35.5162109,61.2552734 L46.4376953,61.2552734 L45.4082031,72.7580078 L35.5162109,75.4279297 L35.5162109,84.6552734 L53.6986328,79.6160156 L53.8320312,78.1175781 L55.9162109,54.7677734 L56.1326172,52.3861328 L53.7425781,52.3861328 L35.5162109,52.3861328 Z" id="Shape" fill="#FFFFFF" sketch:type="MSShapeGroup"></path>
                <path d="M35.5162109,34.4345703 L35.5162109,39.9431641 L35.5162109,43.2822266 L35.5162109,43.3039062 L56.9111328,43.3039062 L56.9396484,43.3039062 L57.1175781,41.3103516 L57.5216797,36.8140625 L57.7337891,34.4345703 L35.5162109,34.4345703 Z" id="Shape" fill="#FFFFFF" sketch:type="MSShapeGroup"></path>
            </g>
        </g>
    </g>
</svg>