<?xml version="1.0" encoding="UTF-8" standalone="no"?>
<svg width="57px" height="100px" viewBox="0 0 57 100" version="1.1" xmlns="http://www.w3.org/2000/svg" xmlns:xlink="http://www.w3.org/1999/xlink" xmlns:sketch="http://www.bohemiancoding.com/sketch/ns">
    <!-- Generator: Sketch 3.3.3 (12072) - http://www.bohemiancoding.com/sketch -->
    <title>jekyll_logo</title>
    <desc>Created with Sketch.</desc>
    <defs>
        <linearGradient x1="72.4932038%" y1="53.2259508%" x2="-6.18666504%" y2="37.9665517%" id="linearGradient-1">
            <stop stop-color="#F9F9F9" offset="0%"></stop>
            <stop stop-color="#ECECEC" offset="19.2980708%"></stop>
            <stop stop-color="#AAACAC" offset="87.3264603%"></stop>
            <stop stop-color="#8F9191" offset="100%"></stop>
        </linearGradient>
        <filter x="-50%" y="-50%" width="200%" height="200%" filterUnits="objectBoundingBox" id="filter-2">
            <feOffset dx="-5" dy="-5" in="SourceAlpha" result="shadowOffsetInner1"></feOffset>
            <feGaussianBlur stdDeviation="0" in="shadowOffsetInner1" result="shadowBlurInner1"></feGaussianBlur>
            <feComposite in="shadowBlurInner1" in2="SourceAlpha" operator="arithmetic" k2="-1" k3="1" result="shadowInnerInner1"></feComposite>
            <feColorMatrix values="0 0 0 0 0.898039216   0 0 0 0 0.898039216   0 0 0 0 0.898039216  0 0 0 0.7 0" in="shadowInnerInner1" type="matrix" result="shadowMatrixInner1"></feColorMatrix>
            <feMerge>
                <feMergeNode in="SourceGraphic"></feMergeNode>
                <feMergeNode in="shadowMatrixInner1"></feMergeNode>
            </feMerge>
        </filter>
        <filter x="-50%" y="-50%" width="200%" height="200%" filterUnits="objectBoundingBox" id="filter-3">
            <feOffset dx="-3" dy="0" in="SourceAlpha" result="shadowOffsetInner1"></feOffset>
            <feGaussianBlur stdDeviation="2" in="shadowOffsetInner1" result="shadowBlurInner1"></feGaussianBlur>
            <feComposite in="shadowBlurInner1" in2="SourceAlpha" operator="arithmetic" k2="-1" k3="1" result="shadowInnerInner1"></feComposite>
            <feColorMatrix values="0 0 0 0 0   0 0 0 0 0   0 0 0 0 0  0 0 0 0.042 0" in="shadowInnerInner1" type="matrix" result="shadowMatrixInner1"></feColorMatrix>
            <feMerge>
                <feMergeNode in="SourceGraphic"></feMergeNode>
                <feMergeNode in="shadowMatrixInner1"></feMergeNode>
            </feMerge>
        </filter>
        <linearGradient x1="100%" y1="51.3320029%" x2="-41.4133943%" y2="50%" id="linearGradient-4">
            <stop stop-color="#E90388" offset="0%"></stop>
            <stop stop-color="#A10961" offset="38.5364588%"></stop>
            <stop stop-color="#861657" offset="70.7170759%"></stop>
            <stop stop-color="#3E102B" offset="100%"></stop>
        </linearGradient>
    </defs>
    <g id="Assets" stroke="none" stroke-width="1" fill="none" fill-rule="evenodd" sketch:type="MSPage">
        <g id="Icons" sketch:type="MSArtboardGroup" transform="translate(-392.000000, -182.000000)">
            <g id="jekyll_logo" sketch:type="MSLayerGroup" transform="translate(392.000000, 182.000000)">
                <path d="M1.1311356,83.936958 C-1.19378506,89.9935833 1.82946457,96.7874416 7.88672669,99.1126066 C13.9426573,101.437261 20.7366758,98.4119099 23.0616002,92.3552746 C23.0616002,92.3552746 51.0015391,18.798151 51.8709858,17.1000339 C54.0832032,15.8705701 55.469952,15.2542374 55.9322016,14.1756549 C57.2392078,10.9407012 52.8856288,6.16842514 44.6009912,2.82121429 C36.3163536,-0.525996564 28.9541042,-1.13922859 28.6594767,2.82121419 C28.4337736,5.85516167 29.5839759,6.47149463 30.106783,8.67740975 C30.3595473,9.00631338 1.1311356,83.936958 1.1311356,83.936958 Z" id="base" fill="url(#linearGradient-1)" filter="url(#filter-2)" sketch:type="MSShapeGroup"></path>
                <path d="M41.6129535,10.0297397 C46.4032144,11.9651307 50.7034362,12.5020925 51.2177677,11.2290774 C51.7320992,9.95606235 48.2657735,7.35513529 43.4755125,5.41974424 C38.6852516,3.4843532 34.3850298,2.94739139 33.8706983,4.22040647 C33.3563669,5.49342156 36.8226926,8.09434862 41.6129535,10.0297397 Z" id="black-circle" fill-opacity="0.200000003" fill="#333333" filter="url(#filter-3)" sketch:type="MSShapeGroup"></path>
                <path d="M29.8015586,40.1575874 C23.1124808,40.8320494 19.9246386,44.2402665 17.5657743,50.3853179 C16.7570935,52.4920035 4.41708856,84.6388154 4.41708856,84.6388154 C2.78624552,88.8873068 4.90723239,93.6530512 9.15653169,95.2842044 L9.15653169,95.2842044 C13.4048969,96.914999 18.1712364,94.7921563 19.8017199,90.5446016 L42.2116106,32.1648416 C39.4372137,35.2776566 36.4906364,39.4831254 29.8015586,40.1575874 L29.8015586,40.1575874 Z" id="liquid" fill="url(#linearGradient-4)" sketch:type="MSShapeGroup"></path>
                <path d="M13.0878466,99.8533353 C10.1911147,97.4214851 7.84427774,93.6528185 9.09090909,89.2141757 C10.8599225,82.9155865 37.596302,13.7134052 37.596302,13.7134052 C37.596302,13.7134052 30.816641,10.7858243 28.8135593,5.08474576 C28.8074915,5.08474576 28.800547,5.08720755 28.792734,5.09210537 C29.0955574,6.40048569 29.7484982,7.16567444 30.106783,8.67740975 C30.3595473,9.00631338 1.1311356,83.936958 1.1311356,83.936958 C-1.84899844,89.3682601 1.82946457,96.7874416 7.88672669,99.1126066 C9.60066118,99.7705245 11.3737157,99.9999127 13.0878466,99.8533353 Z" id="gloss" fill-opacity="0.400000006" fill="#FFFFFF" sketch:type="MSShapeGroup"></path>
                <g id="bubbles" transform="translate(12.480740, 51.463790)" fill="#FFFFFF" sketch:type="MSShapeGroup" fill-opacity="0.5">
                    <path d="M5.70107858,18.4899846 C7.40303467,18.4899846 8.78274268,17.1102766 8.78274268,15.4083205 C8.78274268,13.7063644 7.40303467,12.3266564 5.70107858,12.3266564 C3.9991225,12.3266564 2.61941448,13.7063644 2.61941448,15.4083205 C2.61941448,17.1102766 3.9991225,18.4899846 5.70107858,18.4899846 Z" id="Oval-2"></path>
                    <circle id="Oval-2" cx="14.2526965" cy="7.93528505" r="1.61787365"></circle>
                    <ellipse id="Oval-2" cx="1.38674884" cy="20.0308166" rx="1.38674884" ry="1.38674884"></ellipse>
                    <circle id="Oval-2" cx="8.55161787" cy="1.15562404" r="1.15562404"></circle>
                    <circle id="Oval-2" cx="6.85670262" cy="29.6610169" r="1.15562404"></circle>
                </g>
            </g>
        </g>
    </g>
</svg>