<?xml version="1.0" encoding="UTF-8" standalone="no"?>
<svg width="78px" height="99px" viewBox="0 0 78 99" version="1.1" xmlns="http://www.w3.org/2000/svg" xmlns:xlink="http://www.w3.org/1999/xlink" xmlns:sketch="http://www.bohemiancoding.com/sketch/ns">
    <!-- Generator: Sketch 3.3.3 (12072) - http://www.bohemiancoding.com/sketch -->
    <title>rubyonrails_logo</title>
    <desc>Created with Sketch.</desc>
    <defs></defs>
    <g id="Assets" stroke="none" stroke-width="1" fill="none" fill-rule="evenodd" sketch:type="MSPage">
        <g id="Icons" sketch:type="MSArtboardGroup" transform="translate(-826.000000, -186.000000)" fill="#A62C39">
            <g id="rubyonrails_logo" sketch:type="MSLayerGroup" transform="translate(825.000000, 186.000000)">
                <g id="text" transform="translate(5.000423, 80.895664)" sketch:type="MSShapeGroup">
                    <path d="M0.429755356,0.361899247 L0.429755356,17.1223581 L4.70469021,17.1223581 L4.70469021,12.7569485 L8.59510712,16.6473654 L15.154531,16.6473654 L9.9522293,11.4450637 C9.9522293,11.4450637 13.6948972,11.3846265 13.9783584,5.97133758 C13.9783584,1.00518964 10.2311306,0.361899247 5.90348147,0.361899247 L0.429755356,0.361899247 L0.429755356,0.361899247 Z M4.90825854,4.90825854 L8.59510712,4.90825854 L8.59510712,7.89392733 L4.90825854,7.89392733 L4.90825854,4.90825854 L4.90825854,4.90825854 Z" id="path3993"></path>
                    <path d="M23.4103576,0.429755356 C21.0698031,0.416582224 17.8235379,0.633562536 17.8235379,5.04397076 L17.8235379,16.6926028 L22.2115663,16.6926028 L22.2115663,13.8426462 L26.4638825,13.8426462 L26.4638825,16.6247467 L30.8745295,16.6247467 L30.8745295,4.41064708 C30.8745295,0.579617834 26.6182252,0.429755356 24.3377244,0.429755356 C24.0526636,0.429755356 23.7447235,0.431926752 23.4103576,0.429755356 L23.4103576,0.429755356 Z M22.2794224,4.63683411 L26.3960263,4.63683411 L26.3960263,9.2284308 L22.2794224,9.2284308 L22.2794224,4.63683411 L22.2794224,4.63683411 Z" id="path3997"></path>
                    <rect id="rect4001" x="35.2708164" y="0.440713665" width="4.54048031" height="16.0335719"></rect>
                    <path d="M44.5646207,0.653539375 L44.5646207,16.6871091 L55.4901563,16.6871091 L55.4901563,12.430414 L49.0341633,12.430414 L49.0341633,0.582592646 L44.5646207,0.653539375 Z" id="path4003"></path>
                    <path d="M69.9629343,0.511645918 L69.9629343,4.83929502 L62.6556022,4.83929502 L62.6556022,6.40008686 L65.7771786,6.40008686 C67.4089172,6.40008686 70.8142733,6.3291546 70.8142733,11.4371815 C70.8142733,16.5452229 68.4730892,16.8290026 63.7197742,16.8290026 L57.9732339,16.8290026 L57.9732339,12.9270266 L64.5711132,12.9270266 C66.5575782,12.9270266 66.6671323,12.2803778 66.6671323,11.7168935 C66.6671323,11.1534019 65.6515055,10.8912999 63.5859945,10.8912999 C61.5204835,10.8912999 57.689447,9.87638969 57.689447,5.90346699 C57.689447,1.93055153 59.675912,0.440706427 63.6488347,0.440706427 C67.6217501,0.440706427 69.9629343,0.51163868 69.9629343,0.51163868 L69.9629343,0.511645918 Z" id="path4005"></path>
                </g>
                <g id="rails" transform="translate(0.657632, 0.554032)" sketch:type="MSShapeGroup">
                    <path d="M8.75254053,75.9580776 L46.4952881,75.9580776 C46.4952881,75.9580776 38.1237768,56.9448176 40.2521207,39.4923422 C42.3804719,22.0398741 56.1438043,14.0940287 63.9477562,13.2426896 C71.7517082,12.3913506 76.0084105,17.2156123 76.0084105,17.2156123 L77.7110886,14.6615953 C77.7110886,14.6615953 66.5017733,3.31039375 52.312775,4.58739867 C38.1237768,5.86441083 28.3333599,15.2291546 22.2320932,26.5803561 C16.1308193,37.9315576 12.5835698,45.8773958 10.1714389,57.7961566 C7.75930805,69.7149175 8.75254053,75.9580776 8.75254053,75.9580776 L8.75254053,75.9580776 Z" id="path3966"></path>
                    <path d="M1.23236827,56.9448176 L8.61065431,57.512377 L7.33364215,64.8906558 L0.381029241,64.0393167 L1.23236827,56.9448176 Z" id="path3968"></path>
                    <path d="M12.8673494,41.3369137 L14.8538144,35.8032064 L8.32687464,33.2491821 L6.19852345,39.2085625 L12.8673494,41.3369137 Z" id="path3970"></path>
                    <path d="M22.0901998,22.3236537 L25.9212362,17.7831717 L20.9550811,14.5197018 L16.9821656,18.9182904 L22.0901998,22.3236537 Z" id="path3972"></path>
                    <path d="M32.1643964,4.72929213 L35.5697525,8.84410104 L40.2521207,6.1481905 L36.8467646,2.31716126 L32.1643964,4.72929213 Z" id="path3974"></path>
                    <path d="M48.7655255,0.0469238564 L49.6168645,4.16173277 L55.4343587,4.01983932 L54.8667921,0.330703532 L48.7655255,0.0469238564 Z" id="path3976"></path>
                    <path d="M68.4882383,4.44551245 L68.3463448,6.99952953 L72.3192675,9.12788072 L73.1706065,7.85086856 L68.4882383,4.44551245 Z" id="path3978"></path>
                    <path d="M67.6368992,15.3710408 L67.6368992,17.499392 L71.4679285,17.9250651 L71.4679285,16.2223798 L67.6368992,15.3710408 Z" id="path3980"></path>
                    <path d="M55.4343587,17.2156123 L57.278923,20.6209757 L59.9748335,18.4926245 L59.4072742,16.2223798 L55.4343587,17.2156123 Z" id="path3982"></path>
                    <path d="M49.6168645,21.6142009 L52.4546685,25.8709033 L50.7519832,28.8505935 L46.6371743,24.3101115 L49.6168645,21.6142009 Z" id="path3984"></path>
                    <path d="M43.9412638,33.3910756 L42.0966922,37.0802113 L46.920954,41.1950275 L48.0560727,36.512652 L43.9412638,33.3910756 Z" id="path3986"></path>
                    <path d="M41.954806,46.3030617 L41.6710263,51.2692169 L47.6304068,53.8232339 L47.3466271,49.1408657 L41.954806,46.3030617 Z" id="path3988"></path>
                    <path d="M43.6574841,63.8974233 L45.0763825,69.0054647 L52.5965547,69.4311378 L49.9006442,63.8974233 L43.6574841,63.8974233 Z" id="path3990"></path>
                </g>
            </g>
        </g>
    </g>
</svg>