<?xml version="1.0" encoding="UTF-8" standalone="no"?>
<svg width="89px" height="100px" viewBox="0 0 89 100" version="1.1" xmlns="http://www.w3.org/2000/svg" xmlns:xlink="http://www.w3.org/1999/xlink" xmlns:sketch="http://www.bohemiancoding.com/sketch/ns">
    <!-- Generator: Sketch 3.3.3 (12072) - http://www.bohemiancoding.com/sketch -->
    <title>shopify_logo</title>
    <desc>Created with Sketch.</desc>
    <defs></defs>
    <g id="Assets" stroke="none" stroke-width="1" fill="none" fill-rule="evenodd" sketch:type="MSPage">
        <g id="Icons" sketch:type="MSArtboardGroup" transform="translate(-712.000000, -182.000000)">
            <g id="shopify_logo" sketch:type="MSLayerGroup" transform="translate(711.857143, 182.000000)">
                <path d="M41.0176,3.648 C41.572,3.648 42.1304,3.836 42.6648,4.204 C38.5488,6.1408 34.1368,11.0192 32.2736,20.7608 C29.5504,21.604 26.8888,22.428 24.428,23.1904 C26.6104,15.76 31.7928,3.648 41.0176,3.648 L41.0176,3.648 Z M44.8336,7.26 C45.6232,9.2392 46.1368,12.0792 46.1368,15.912 C46.1368,16.108 46.1352,16.2872 46.1336,16.4688 C43.0072,17.4368 39.612,18.488 36.208,19.5424 C38.1192,12.1664 41.7016,8.604 44.8336,7.26 L44.8336,7.26 Z M54.308,13.9392 C52.8816,14.3808 51.26,14.8824 49.5024,15.4264 C49.504,15.088 49.5048,14.7544 49.5048,14.3904 C49.5048,11.2144 49.0648,8.6576 48.3568,6.6304 C51.1984,6.9872 53.0904,10.2192 54.308,13.9392 L54.308,13.9392 Z M77.3736,19.5928 C77.3048,19.092 76.8664,18.8152 76.504,18.7848 C76.1424,18.7544 68.488,18.1872 68.488,18.1872 C68.488,18.1872 63.172,12.9096 62.5888,12.3256 C62.0048,11.7424 60.8648,11.9192 60.4224,12.0496 C60.3568,12.0688 59.2608,12.4072 57.4472,12.968 C55.6712,7.8584 52.5376,3.1624 47.024,3.1624 C46.872,3.1624 46.7152,3.1688 46.5576,3.1776 C44.9904,1.104 43.048,0.2032 41.3704,0.2032 C28.5272,0.2032 22.3912,16.2584 20.4672,24.4176 C15.4768,25.964 11.9312,27.0632 11.4784,27.2056 C8.692,28.0792 8.6048,28.1672 8.2392,30.792 C7.9632,32.7792 0.6744,89.1472 0.6744,89.1472 L57.4704,99.7888 L88.2448,93.1312 C88.2448,93.1312 77.4416,20.0936 77.3736,19.5928 L77.3736,19.5928 Z" id="bag" fill="#8DB849" sketch:type="MSShapeGroup"></path>
                <path d="M76.504,18.7848 C76.1424,18.7544 68.488,18.1872 68.488,18.1872 C68.488,18.1872 63.172,12.9096 62.5888,12.3264 C62.3704,12.108 62.076,11.9968 61.768,11.9488 L57.4736,99.788 L88.2448,93.1312 C88.2448,93.1312 77.4416,20.0944 77.3736,19.5928 C77.3048,19.092 76.8664,18.8152 76.504,18.7848" id="bag_shadow" fill="#5A873E" sketch:type="MSShapeGroup"></path>
                <path d="M47.024,35.7888 L43.2296,47.076 C43.2296,47.076 39.9048,45.3016 35.8296,45.3016 C29.8552,45.3016 29.5544,49.0512 29.5544,49.996 C29.5544,55.1512 42.992,57.1264 42.992,69.2016 C42.992,78.7016 36.9672,84.8192 28.8424,84.8192 C19.092,84.8192 14.1072,78.7512 14.1072,78.7512 L16.7176,70.1264 C16.7176,70.1264 21.8424,74.5264 26.1672,74.5264 C28.992,74.5264 30.1424,72.3016 30.1424,70.676 C30.1424,63.9512 19.1176,63.6512 19.1176,52.6016 C19.1176,43.3016 25.792,34.3016 39.2672,34.3016 C44.4592,34.3016 47.024,35.7888 47.024,35.7888" id="text" fill="#FFFFFF" sketch:type="MSShapeGroup"></path>
            </g>
        </g>
    </g>
</svg>