<?xml version="1.0" encoding="UTF-8" standalone="no"?>
<svg width="100px" height="100px" viewBox="0 0 100 100" version="1.1" xmlns="http://www.w3.org/2000/svg" xmlns:xlink="http://www.w3.org/1999/xlink" xmlns:sketch="http://www.bohemiancoding.com/sketch/ns">
    <!-- Generator: Sketch 3.3.3 (12072) - http://www.bohemiancoding.com/sketch -->
    <title>wordpress_logo</title>
    <desc>Created with Sketch.</desc>
    <defs></defs>
    <g id="Assets" stroke="none" stroke-width="1" fill="none" fill-rule="evenodd" sketch:type="MSPage">
        <g id="Icons" sketch:type="MSArtboardGroup" transform="translate(-162.000000, -182.000000)" fill="#1F1A17">
            <g id="wordpress_logo" sketch:type="MSLayerGroup" transform="translate(162.000000, 182.000000)">
                <path d="M50.0001549,7.00628611 C61.2155397,7.00628611 71.4275094,11.3042247 79.0829294,18.3408688 C75.3318646,18.2414778 71.5878855,20.4709817 71.43233,25.5781378 C71.1175446,35.903575 83.7787298,38.1012921 76.9554107,58.8693315 L71.3118931,76.0472823 L55.941793,30.7716384 C55.7038367,30.0708005 55.9812753,29.6726308 56.842555,29.6726308 L61.1878281,29.6726308 C61.4136672,29.6726308 61.59827,29.4797962 61.59827,29.2436674 L61.59827,26.6700424 C61.59827,26.433991 61.4132858,26.2313992 61.1878281,26.2411565 C52.9589535,26.6009881 44.7784782,26.6034274 36.6482026,26.2411565 C36.4228979,26.2312482 36.2377608,26.434144 36.2377608,26.6700424 L36.2377608,29.2436674 C36.2377608,29.4795658 36.4223636,29.6726308 36.6482026,29.6726308 L41.0172495,29.6726308 C41.9891237,29.6726308 42.2612267,29.9964862 42.4903434,30.6229343 L48.8068053,47.8949347 L39.3060542,76.5792859 L23.6919634,30.5840406 C23.4966895,30.008737 23.7310642,29.672685 24.2876953,29.672685 L29.2660512,29.672685 C29.4918128,29.672685 29.6764175,29.4798504 29.6764175,29.2437216 L29.6764175,26.6700966 C29.6764175,26.4340453 29.4911274,26.2293954 29.2660512,26.2412107 C24.0428141,26.5186492 18.7995977,26.5744421 13.9156012,26.6245934 C21.5798492,14.8181947 34.8787093,7.00640614 50.000211,7.00640614 L50.0001549,7.00628611 L50.0001549,7.00628611 Z M87.8139762,29.5280464 C91.1177149,35.6149988 92.9936926,42.5889367 92.9936926,49.9998045 C92.9936926,66.2629691 83.9574976,80.4185943 70.6343604,87.7232158 L84.0455457,49.7456111 C86.1215288,43.86726 88.049739,35.9242899 87.8140536,29.5280464 L87.8139762,29.5280464 L87.8139762,29.5280464 Z M64.3950857,90.5195359 C59.8941797,92.1196858 55.0493673,92.9934583 50.0000581,92.9934583 C45.6509711,92.9934583 41.4539548,92.3447543 37.4969412,91.1433085 L50.7418263,53.1864188 L64.3950857,90.5195378 L64.3950857,90.5195359 L64.3950857,90.5195359 Z M31.6037604,88.8653453 C17.0643672,81.9700079 7.00644292,67.158049 7.00644292,49.9999032 C7.00644292,43.6398431 8.38997863,37.6023549 10.8696199,32.1704199 L31.6037024,88.8654034 L31.6037604,88.8653453 L31.6037604,88.8653453 Z M50,2.97239689 C75.9679867,2.97239689 97.0275063,24.0319165 97.0275063,49.9999032 C97.0275063,75.9678899 75.9679867,97.0274095 50,97.0274095 C24.0320133,97.0274095 2.97249369,75.9678899 2.97249369,49.9999032 C2.97249369,24.0319165 24.0320133,2.97239689 50,2.97239689 L50,2.97239689 L50,2.97239689 Z M50,-7.10542736e-15 C77.6094987,-7.10542736e-15 100,22.3905013 100,50 C100,77.6094987 77.6094987,100 50,100 C22.3905013,100 -7.10542736e-15,77.6094987 -7.10542736e-15,50 C-7.10542736e-15,22.3905013 22.3905013,-7.10542736e-15 50,-7.10542736e-15 L50,-7.10542736e-15 L50,-7.10542736e-15 Z" sketch:type="MSShapeGroup"></path>
            </g>
        </g>
    </g>
</svg>