<svg width="70" height="60" viewBox="0 0 70 60" xmlns="http://www.w3.org/2000/svg"><g fill="none" fill-rule="evenodd" fill-opacity=".301"><g fill="#9B9B9B"><path d="M32.42 6.32c-4.062 1.58-7.828 3.787-11.3 6.618-3.47 2.83-5.664 6.55-6.58 11.16 5.108 0 9.463 1.218 13.065 3.655 3.602 2.436 5.403 6.42 5.403 11.95 0 4.61-1.637 8.23-4.912 10.864-3.275 2.634-7.073 3.95-11.396 3.95-5.763 0-9.987-1.942-12.672-5.827C1.343 44.806 0 40.23 0 34.962c0-4.74.95-8.954 2.85-12.64 1.898-3.69 4.354-6.98 7.367-9.878C13.23 9.547 16.7 7.078 20.63 5.037c3.93-2.04 7.86-3.72 11.79-5.037v6.32zM69.41 6.32c-4.06 1.58-7.826 3.787-11.297 6.618-3.47 2.83-5.665 6.55-6.582 11.16 5.11 0 9.465 1.218 13.067 3.655C68.2 30.19 70 34.173 70 39.703c0 4.61-1.637 8.23-4.912 10.864-3.275 2.634-7.073 3.95-11.396 3.95-5.763 0-9.987-1.942-12.672-5.827-2.685-3.884-4.028-8.46-4.028-13.728 0-4.74.95-8.954 2.85-12.64 1.898-3.69 4.354-6.98 7.367-9.878 3.01-2.897 6.482-5.366 10.412-7.407 3.93-2.04 7.86-3.72 11.79-5.037v6.32z"/></g></g></svg>