<svg width="60" height="60" viewBox="0 0 60 60" xmlns="http://www.w3.org/2000/svg"><g fill="none" fill-rule="evenodd"><g fill="#007BB6"><g><path d="M0 0v60h60V0H0zm22.354 44.137h-6.79V23.71h6.79v20.427zM18.96 20.922h-.044c-2.28 0-3.753-1.57-3.753-3.53 0-2.004 1.52-3.53 3.84-3.53 2.323 0 3.754 1.526 3.798 3.53 0 1.96-1.474 3.53-3.84 3.53zm27.876 23.215h-6.788v-10.93c0-2.744-.983-4.617-3.44-4.617-1.876 0-2.993 1.263-3.483 2.483-.18.437-.224 1.046-.224 1.656v11.407h-6.79s.09-18.51 0-20.427h6.79v2.894c.902-1.39 2.516-3.374 6.12-3.374 4.468 0 7.817 2.92 7.817 9.195v11.712z"/></g></g></g></svg>