<svg width="70" height="60" viewBox="0 0 70 60" xmlns="http://www.w3.org/2000/svg"><g fill="none" fill-rule="evenodd" fill-opacity=".303"><g fill="#9B9B9B"><path d="M37.58 47.936c4.062-1.572 7.828-3.766 11.3-6.582 3.47-2.815 5.664-6.515 6.58-11.1-5.108 0-9.463-1.21-13.065-3.634-3.602-2.423-5.403-6.385-5.403-11.886 0-4.584 1.637-8.185 4.912-10.805C45.18 1.31 48.977 0 53.3 0c5.763 0 9.987 1.932 12.672 5.796C68.657 9.66 70 14.21 70 19.45c0 4.714-.95 8.905-2.85 12.573-1.898 3.667-4.354 6.94-7.367 9.823-3.012 2.88-6.483 5.337-10.413 7.367-3.93 2.03-7.86 3.7-11.79 5.01v-6.287zM.59 47.936c4.06-1.572 7.826-3.766 11.297-6.582 3.47-2.815 5.665-6.515 6.582-11.1-5.11 0-9.465-1.21-13.067-3.634C1.8 24.197 0 20.235 0 14.734 0 10.15 1.637 6.55 4.912 3.93 8.187 1.31 11.985 0 16.308 0c5.763 0 9.987 1.932 12.672 5.796 2.685 3.863 4.028 8.414 4.028 13.653 0 4.714-.95 8.905-2.85 12.573-1.898 3.667-4.354 6.94-7.367 9.823-3.01 2.88-6.482 5.337-10.412 7.367-3.93 2.03-7.86 3.7-11.79 5.01v-6.287z"/></g></g></svg>