<svg width="60" height="60" viewBox="0 0 60 60" xmlns="http://www.w3.org/2000/svg"><g fill="none" fill-rule="evenodd"><g fill="#4099FF"><g><path d="M0 0v60h60V0H0zm34.167 18.283c-2.62.953-4.274 3.41-4.086 6.1l.064 1.04-1.048-.128c-3.813-.487-7.145-2.14-9.974-4.915l-1.383-1.377-.357 1.017c-.754 2.267-.272 4.66 1.3 6.27.837.89.65 1.018-.797.488-.503-.17-.943-.296-.985-.233-.146.15.357 2.076.755 2.84.545 1.058 1.656 2.096 2.87 2.71l1.028.488-1.216.02c-1.173 0-1.215.022-1.09.467.42 1.377 2.075 2.84 3.92 3.475l1.298.444-1.13.677c-1.677.975-3.647 1.526-5.617 1.568-.943.02-1.718.106-1.718.17 0 .21 2.556 1.398 4.044 1.864 4.463 1.376 9.765.783 13.746-1.57 2.83-1.672 5.658-5 6.978-8.22.712-1.715 1.425-4.85 1.425-6.354 0-.975.062-1.102 1.236-2.267.69-.68 1.34-1.42 1.466-1.632.21-.403.188-.403-.88-.043-1.78.636-2.033.55-1.153-.402.65-.678 1.425-1.907 1.425-2.267 0-.063-.314.042-.67.233-.378.21-1.216.53-1.844.72l-1.132.36-1.027-.7c-.565-.38-1.362-.805-1.78-.932-1.07-.296-2.704-.254-3.668.085z"/></g></g></g></svg>