<svg width="834" height="187" viewBox="0 0 834 187" xmlns="http://www.w3.org/2000/svg"><g fill="none" fill-rule="evenodd"><g><g><path d="M404.914 79.58c-1.194 2.146-2.144 5.373-2.144 7.407 0 .472 0 1.072.117 1.905l-14.926-25.67c-.477-.833-.833-2.028-.833-3.104 0-1.078.356-2.39.834-3.223l7.166-12.538-8-4.533 26.032-.482 12.654 22.804-8.116-4.656-12.782 22.09z" id="Path" fill="#4EAC34"/><path d="M416.38 7.228c2.266-3.944 5.97-6.093 10.504-6.093 4.9 0 8.72 2.27 11.465 6.922l4.06 6.805-14.093 24.363-22.803-13.255L416.38 7.228zM405.63 87.82c0-1.91.84-5.138 2.034-7.166l3.816-6.805h28.302v26.386h-21.735c-6.805 0-12.416-5.612-12.416-12.416z" id="Path" fill="#007F39"/><path d="M440.738 6.507c-1.79-3.1-4.177-5.255-7.044-6.45h29.37c2.627 0 4.655 1.078 5.854 3.11l7.283 12.416 7.88-4.66-12.66 22.69-25.905-.364 8-4.535-12.777-22.208zM485.995 74.088c3.578 0 6.566-.955 9.07-2.862l-14.808 25.787c-1.194 2.028-3.34 3.223-5.845 3.223h-13.976v9.193l-13.37-22.327 13.37-22.33v9.315h25.56z" id="Path" fill="#4EAC34"/><path d="M497.45 52.596c1.077 1.91 1.677 3.938 1.677 6.09 0 4.298-2.75 8.836-6.566 10.98-1.793.962-4.304 1.56-6.804 1.56h-7.887l-14.085-24.363 22.804-13.015 10.86 18.748z" fill="#007F39"/></g><path fill="#000" d="M1 126h832v61H1z"/><path d="M175.03 171.016c1.58 0 2.876-.164 3.892-.493 1.812-.61 3.297-1.78 4.453-3.515.922-1.39 1.586-3.172 1.992-5.344.235-1.297.352-2.5.352-3.61 0-4.265-.85-7.577-2.544-9.937-1.696-2.36-4.426-3.54-8.192-3.54h-8.273v26.44h8.32zm-13.007-30.446h13.946c4.733 0 8.405 1.68 11.014 5.04 2.33 3.03 3.493 6.913 3.493 11.648 0 3.656-.688 6.96-2.063 9.914-2.422 5.22-6.586 7.828-12.492 7.828h-13.9v-34.43zm56.9 0h25.1v4.22H223.47v10.452h19.007v3.985H223.47v11.67h20.905V175h-25.453v-34.43zm53.452 0h6.68l9.89 29.11 9.82-29.11h6.61V175h-4.43v-20.32c0-.703.016-1.867.047-3.493.03-1.625.047-3.367.047-5.226L291.22 175H286.6l-9.89-29.04v1.056c0 .843.018 2.13.058 3.855.04 1.728.058 2.997.058 3.81V175h-4.453v-34.43zm90.46 4.922c2.282 3.047 3.423 6.945 3.423 11.696 0 5.14-1.305 9.414-3.914 12.82-3.063 4-7.43 6-13.102 6-5.297 0-9.46-1.75-12.492-5.25-2.703-3.375-4.055-7.64-4.055-12.797 0-4.655 1.157-8.64 3.47-11.952 2.968-4.25 7.358-6.375 13.17-6.375 6.08 0 10.58 1.953 13.5 5.86zm-4.112 21.926c1.836-2.945 2.754-6.332 2.754-10.16 0-4.047-1.06-7.305-3.176-9.774-2.116-2.468-5.01-3.703-8.683-3.703-3.562 0-6.47 1.224-8.72 3.67-2.25 2.445-3.374 6.05-3.374 10.816 0 3.812.965 7.027 2.895 9.644 1.93 2.617 5.06 3.926 9.387 3.926 4.11 0 7.082-1.473 8.918-4.418zm35.09-26.848h4.664v30.328h17.437V175h-22.1l-.002-34.43zm49.75 0h4.71V175h-4.71v-34.43zm59.335 0v4.102h-11.6V175h-4.736v-30.328h-11.6v-4.102h27.936zm27.32 0h4.712V175h-4.71v-34.43zm62.64 4.922c2.283 3.047 3.423 6.945 3.423 11.696 0 5.14-1.303 9.414-3.913 12.82-3.062 4-7.43 6-13.1 6-5.298 0-9.462-1.75-12.494-5.25-2.703-3.375-4.054-7.64-4.054-12.797 0-4.655 1.155-8.64 3.467-11.952 2.97-4.25 7.36-6.375 13.172-6.375 6.078 0 10.577 1.953 13.5 5.86zm-4.112 21.926c1.836-2.945 2.754-6.332 2.754-10.16 0-4.047-1.06-7.305-3.176-9.774-2.117-2.468-5.01-3.703-8.683-3.703-3.562 0-6.468 1.224-8.718 3.67-2.25 2.445-3.375 6.05-3.375 10.816 0 3.812.965 7.027 2.894 9.644 1.93 2.617 5.06 3.926 9.388 3.926 4.11 0 7.082-1.473 8.918-4.418zm35.09-26.848h5.508l17.39 27.89v-27.89h4.43V175h-5.226l-17.65-27.867V175h-4.452v-34.43z" fill="#fff"/><path d="M171.086.547l-42.188 98.72h-17.015L86.57 41.82 60.625 99.266H43.47L2.124.546H32.57l20.25 54 23.203-54h21.024l22.78 54 21.165-54h30.094zm108.562 0l-38.18 52.805V98h-29.39V53.914L173.195.547h30.516l22.36 30.656L248.5.547h31.148zm94.15 90.14c-4.032 2.11-8.157 3.797-12.376 5.063-4.22 1.266-8.473 2.168-12.762 2.707-4.29.54-8.73.81-13.324.81-8.484 0-16.09-1.173-22.816-3.517-6.727-2.344-12.563-5.8-17.508-10.37-4.946-4.57-8.65-9.915-11.11-16.032-2.46-6.118-3.69-12.832-3.69-20.145 0-8.39 1.452-15.738 4.358-22.043 2.907-6.305 6.973-11.543 12.2-15.715 5.226-4.172 11.18-7.254 17.86-9.246C321.31.206 328.35-.79 335.757-.79c11.062 0 23.6 2.462 37.617 7.384V32.47c-4.828-3-9.598-5.497-14.31-7.49-4.71-1.992-10.252-2.988-16.627-2.988-5.672 0-10.97 1.125-15.89 3.375-4.923 2.25-8.884 5.46-11.884 9.633-3 4.172-4.5 9.047-4.5 14.625 0 4.922 1.313 9.434 3.938 13.535 2.625 4.102 6.27 7.36 10.933 9.774 4.664 2.414 9.926 3.62 15.785 3.62 4.735 0 9.21-.574 13.43-1.722 4.22-1.148 7.77-2.426 10.652-3.832 2.883-1.406 5.848-3.07 8.895-4.992v24.68zM627.413 98h-29.39V41.54l-26.508 32.694h-2.32l-26.58-32.695V98H514.07V.547h26.65L570.67 37.11 600.766.546h26.648V98zm105.012-7.523C726.684 95.492 718.656 98 708.344 98h-56.32V.547h47.11c6.093 0 11.4.586 15.925 1.758 4.522 1.172 8.167 2.777 10.932 4.816 2.766 2.04 4.828 4.442 6.188 7.208 1.36 2.766 2.04 5.79 2.04 9.07 0 3.563-.704 6.856-2.11 9.88-1.407 3.023-3.153 5.507-5.24 7.452-2.085 1.946-4.182 3.317-6.292 4.114 6.656 2.625 11.73 5.94 15.223 9.95 3.493 4.007 5.24 9.198 5.24 15.573 0 8.39-2.872 15.094-8.614 20.11zm-25.7-61.875c0-4.688-1.546-7.805-4.64-9.352-3.094-1.547-7.922-2.32-14.484-2.32h-6.188v23.343h6.328c6.703 0 11.543-.773 14.52-2.32 2.976-1.547 4.465-4.664 4.465-9.35zm4.782 40.57c0-8.344-6.047-12.516-18.14-12.516h-11.954v24.96h11.953c12.094 0 18.14-4.147 18.14-12.444zM833.358 98h-73.475V.547h72.28v19.547h-42.89v17.86h40.922V57.57h-40.922v20.813h44.086V98z" fill="#000"/></g></g></svg>