<svg width="834" height="187" viewBox="0 0 834 187" xmlns="http://www.w3.org/2000/svg"><g fill="none" fill-rule="evenodd"><g><g><path d="M404.914 79.58c-1.194 2.146-2.144 5.373-2.144 7.407 0 .472 0 1.072.117 1.905l-14.926-25.67c-.477-.833-.833-2.028-.833-3.104 0-1.078.356-2.39.834-3.223l7.166-12.538-8-4.533 26.032-.482 12.654 22.804-8.116-4.656-12.782 22.09z" id="Path" fill="#4EAC34"/><path d="M416.38 7.228c2.266-3.944 5.97-6.093 10.504-6.093 4.9 0 8.72 2.27 11.465 6.922l4.06 6.805-14.093 24.363-22.803-13.255L416.38 7.228zM405.63 87.82c0-1.91.84-5.138 2.034-7.166l3.816-6.805h28.302v26.386h-21.735c-6.805 0-12.416-5.612-12.416-12.416z" id="Path" fill="#007F39"/><path d="M440.738 6.507c-1.79-3.1-4.177-5.255-7.044-6.45h29.37c2.627 0 4.655 1.078 5.854 3.11l7.283 12.416 7.88-4.66-12.66 22.69-25.905-.364 8-4.535-12.777-22.208zM485.995 74.088c3.578 0 6.566-.955 9.07-2.862l-14.808 25.787c-1.194 2.028-3.34 3.223-5.845 3.223h-13.976v9.193l-13.37-22.327 13.37-22.33v9.315h25.56z" id="Path" fill="#4EAC34"/><path d="M497.45 52.596c1.077 1.91 1.677 3.938 1.677 6.09 0 4.298-2.75 8.836-6.566 10.98-1.793.962-4.304 1.56-6.804 1.56h-7.887l-14.085-24.363 22.804-13.015 10.86 18.748z" fill="#007F39"/></g><path fill="#000" d="M1 126h832v61H1z"/><path d="M114.898 156.344c2.188 0 3.918-.438 5.192-1.313 1.273-.874 1.91-2.452 1.91-4.733 0-2.453-.89-4.125-2.672-5.016-.953-.468-2.226-.702-3.82-.702h-11.39v11.766h10.78zM99.453 140.57h15.938c2.626 0 4.79.383 6.493 1.15 3.234 1.468 4.85 4.178 4.85 8.132 0 2.062-.424 3.75-1.276 5.062-.852 1.313-2.043 2.367-3.574 3.164 1.344.547 2.355 1.266 3.035 2.156.68.89 1.06 2.336 1.137 4.336l.164 4.618c.046 1.312.155 2.29.327 2.93.28 1.093.78 1.796 1.5 2.11V175h-5.72c-.155-.297-.28-.68-.374-1.148-.094-.47-.172-1.375-.234-2.72l-.282-5.74c-.11-2.25-.946-3.76-2.508-4.525-.89-.422-2.29-.633-4.196-.633h-10.617V175h-4.664v-34.43zm56.547 0h25.102v4.22h-20.555v10.452h19.008v3.985h-19.008v11.67h20.906V175H156v-34.43zm78.227 2.508c2.406 2.297 3.742 4.906 4.007 7.828h-4.547c-.515-2.22-1.542-3.976-3.082-5.273-1.54-1.297-3.7-1.946-6.48-1.946-3.39 0-6.13 1.192-8.215 3.575-2.086 2.383-3.13 6.035-3.13 10.957 0 4.03.943 7.3 2.825 9.807 1.883 2.508 4.692 3.762 8.426 3.762 3.44 0 6.056-1.32 7.853-3.962.953-1.39 1.664-3.22 2.133-5.484h4.547c-.407 3.625-1.75 6.664-4.032 9.117-2.733 2.954-6.42 4.43-11.06 4.43-4 0-7.36-1.21-10.08-3.632-3.578-3.203-5.367-8.15-5.367-14.836 0-5.078 1.344-9.242 4.032-12.492 2.906-3.532 6.914-5.297 12.023-5.297 4.36 0 7.742 1.148 10.15 3.445zm29.335-2.508H269l9.89 16.547 9.89-16.547h5.462l-13.008 20.555V175h-4.664v-13.875l-13.007-20.555zm81.344 2.508c2.407 2.297 3.742 4.906 4.008 7.828h-4.547c-.515-2.22-1.543-3.976-3.082-5.273-1.54-1.297-3.7-1.946-6.48-1.946-3.39 0-6.13 1.192-8.215 3.575-2.086 2.383-3.13 6.035-3.13 10.957 0 4.03.942 7.3 2.825 9.807 1.883 2.508 4.692 3.762 8.426 3.762 3.438 0 6.056-1.32 7.853-3.962.953-1.39 1.664-3.22 2.132-5.484h4.547c-.406 3.625-1.75 6.664-4.03 9.117-2.735 2.954-6.423 4.43-11.064 4.43-4 0-7.36-1.21-10.078-3.632-3.578-3.203-5.367-8.15-5.367-14.836 0-5.078 1.344-9.242 4.03-12.492 2.908-3.532 6.915-5.297 12.025-5.297 4.36 0 7.742 1.148 10.148 3.445zm32.008-2.508h4.664v30.328h17.438V175h-22.102v-34.43zm49.75 0h4.71V175h-4.71v-34.43zm34.28 0h5.51l17.39 27.89v-27.89h4.43V175h-5.227l-17.65-27.867V175h-4.452v-34.43zm79.94.985c3.42 1.797 5.514 4.945 6.28 9.445h-4.617c-.563-2.516-1.727-4.348-3.492-5.496-1.766-1.15-3.992-1.723-6.68-1.723-3.188 0-5.87 1.197-8.05 3.587-2.18 2.39-3.27 5.953-3.27 10.688 0 4.093.898 7.425 2.695 9.996 1.797 2.57 4.727 3.856 8.79 3.856 3.108 0 5.683-.902 7.722-2.707 2.04-1.805 3.082-4.723 3.13-8.755h-10.783v-3.867h15.117V175h-3l-1.125-4.43c-1.58 1.735-2.977 2.938-4.196 3.61-2.047 1.156-4.648 1.734-7.804 1.734-4.08 0-7.586-1.32-10.524-3.96-3.203-3.313-4.805-7.86-4.805-13.642 0-5.765 1.563-10.35 4.688-13.757 2.97-3.25 6.813-4.875 11.532-4.875 3.235 0 6.03.625 8.39 1.875zm71.397-.985h4.665v30.328h17.438V175H612.28v-34.43zm70.212 0v4.102h-11.6V175h-4.736v-30.328h-11.6v-4.102h27.936zm39.485 30.446c1.578 0 2.875-.164 3.89-.493 1.813-.61 3.297-1.78 4.453-3.515.922-1.39 1.586-3.172 1.992-5.344.235-1.297.352-2.5.352-3.61 0-4.265-.848-7.577-2.543-9.937-1.694-2.36-4.425-3.54-8.19-3.54h-8.274v26.44h8.32zM708.97 140.57h13.944c4.734 0 8.406 1.68 11.016 5.04 2.328 3.03 3.492 6.913 3.492 11.648 0 3.656-.688 6.96-2.063 9.914-2.423 5.22-6.587 7.828-12.493 7.828H708.97v-34.43z" fill="#fff"/><path d="M171.086.547l-42.188 98.72h-17.015L86.57 41.82 60.625 99.266H43.47L2.124.546H32.57l20.25 54 23.203-54h21.024l22.78 54 21.165-54h30.094zm108.562 0l-38.18 52.805V98h-29.39V53.914L173.195.547h30.516l22.36 30.656L248.5.547h31.148zm94.15 90.14c-4.032 2.11-8.157 3.797-12.376 5.063-4.22 1.266-8.473 2.168-12.762 2.707-4.29.54-8.73.81-13.324.81-8.484 0-16.09-1.173-22.816-3.517-6.727-2.344-12.563-5.8-17.508-10.37-4.946-4.57-8.65-9.915-11.11-16.032-2.46-6.118-3.69-12.832-3.69-20.145 0-8.39 1.452-15.738 4.358-22.043 2.907-6.305 6.973-11.543 12.2-15.715 5.226-4.172 11.18-7.254 17.86-9.246C321.31.206 328.35-.79 335.757-.79c11.062 0 23.6 2.462 37.617 7.384V32.47c-4.828-3-9.598-5.497-14.31-7.49-4.71-1.992-10.252-2.988-16.627-2.988-5.672 0-10.97 1.125-15.89 3.375-4.923 2.25-8.884 5.46-11.884 9.633-3 4.172-4.5 9.047-4.5 14.625 0 4.922 1.313 9.434 3.938 13.535 2.625 4.102 6.27 7.36 10.933 9.774 4.664 2.414 9.926 3.62 15.785 3.62 4.735 0 9.21-.574 13.43-1.722 4.22-1.148 7.77-2.426 10.652-3.832 2.883-1.406 5.848-3.07 8.895-4.992v24.68zM627.413 98h-29.39V41.54l-26.508 32.694h-2.32l-26.58-32.695V98H514.07V.547h26.65L570.67 37.11 600.766.546h26.648V98zM741.04 70.367c0 8.39-2.872 15.094-8.614 20.11-5.742 5.015-13.77 7.523-24.082 7.523h-56.32V.547h47.11c6.093 0 11.4.586 15.925 1.758 4.522 1.172 8.167 2.777 10.932 4.816 2.766 2.04 4.828 4.442 6.188 7.208 1.36 2.766 2.04 5.79 2.04 9.07 0 3.563-.704 6.856-2.11 9.88-1.407 3.023-3.153 5.507-5.24 7.452-2.085 1.946-4.182 3.317-6.292 4.114 6.656 2.625 11.73 5.94 15.223 9.95 3.493 4.007 5.24 9.198 5.24 15.573zm-34.313-41.765c0-4.688-1.547-7.805-4.64-9.352-3.095-1.547-7.923-2.32-14.485-2.32h-6.188v23.343h6.328c6.703 0 11.543-.773 14.52-2.32 2.976-1.547 4.465-4.664 4.465-9.35zm4.78 40.57c0-8.344-6.046-12.516-18.14-12.516h-11.953v24.96h11.953c12.094 0 18.14-4.147 18.14-12.444zM833.36 98h-73.477V.547h72.28v19.547h-42.89v17.86h40.922V57.57h-40.922v20.813h44.086V98z" fill="#000"/></g></g></svg>