<?xml version="1.0" encoding="UTF-8" standalone="no"?>
<svg width="149px" height="149px" viewBox="0 0 149 149" version="1.1" xmlns="http://www.w3.org/2000/svg" xmlns:xlink="http://www.w3.org/1999/xlink" xmlns:sketch="http://www.bohemiancoding.com/sketch/ns">
    <!-- Generator: Sketch 3.3.3 (12072) - http://www.bohemiancoding.com/sketch -->
    <title>appstore_logo</title>
    <desc>Created with Sketch.</desc>
    <defs></defs>
    <g id="Page-1-Copy" stroke="none" stroke-width="1" fill="none" fill-rule="evenodd" sketch:type="MSPage">
        <g id="Desktop" sketch:type="MSArtboardGroup" transform="translate(-264.000000, -3174.000000)" stroke="#D9B37E">
            <g id="Specialities-Module" sketch:type="MSLayerGroup" transform="translate(-3.000000, 785.000000)">
                <g id="Group" transform="translate(181.000000, 1842.000000)" sketch:type="MSShapeGroup">
                    <g id="appstore_logo" transform="translate(86.000000, 547.000000)">
                        <circle id="outer" cx="74.5" cy="74.5" r="74.5"></circle>
                        <circle id="inner" cx="75" cy="75" r="70"></circle>
                        <path d="M103.261506,79.9237858 C100.213156,81.6768012 97.1730043,83.4257144 94.0413062,85.2272727 C93.5391687,84.3938383 93.0363481,83.5863847 92.5594883,82.7632058 C89.9401754,78.2493963 87.3215456,73.7349031 84.7145298,69.2149402 C82.3397954,65.0976786 79.9869227,60.9681103 77.6115051,56.8515324 C75.0468466,52.4101954 72.4589599,47.9825325 69.8997668,43.537777 C69.4133425,42.692036 68.9200863,41.8292023 68.5989916,40.915091 C68.232807,39.8744944 68.7185482,38.9255142 69.3928471,38.1604501 C70.6936222,36.6843346 72.3066107,35.6334825 74.2283967,35.1671969 C76.0401906,34.7275756 77.4803345,35.1008776 78.4709458,36.9359374 C80.2294517,40.1931002 82.1669508,43.3538608 84.0204187,46.5611132 C85.6846458,49.4401881 87.3283774,52.3302021 88.9939707,55.2079096 C91.5866397,59.6868502 94.1970713,64.1548517 96.7856412,68.6365271 C98.9506393,72.3839052 101.093776,76.14359 103.261506,79.9237858 C103.261506,79.9237858 101.093776,76.14359 103.261506,79.9237858 Z M46.3429879,100.568182 C43.231247,98.7726156 40.1925389,97.0201593 37.0958141,95.2341731 C44.3956756,82.5796735 51.6777909,69.9559668 58.9940337,57.2727273 C62.0859807,59.0566607 65.1376572,60.8173283 68.2459854,62.6108417 C60.941346,75.269447 53.6640085,87.8815208 46.3429879,100.568182 C46.3429879,100.568182 53.6640085,87.8815208 46.3429879,100.568182 Z M91.6654573,84.0909091 L57.5594303,84.0909091 C58.450453,82.5409056 59.3046057,81.0435256 60.1703657,79.5516131 C61.2860217,77.6298274 62.4003121,75.7066749 63.5473758,73.8033416 C63.6675444,73.6037821 64.0055185,73.4247253 64.2431246,73.4240418 C71.1821771,73.4042226 78.1212297,73.4035391 85.0602822,73.4254087 C85.3197371,73.4260921 85.6938983,73.6188174 85.8195291,73.8347791 C87.673266,77.0126964 89.4949124,80.2090661 91.3213382,83.4027021 C91.4333134,83.6002113 91.5248054,83.8086554 91.6654573,84.0909091 C91.6654573,84.0909091 91.5248054,83.8086554 91.6654573,84.0909091 Z M113.245161,114.886364 C113.000104,114.099974 112.797487,113.395572 112.557906,112.704834 C112.299159,111.956705 112.053417,111.199012 111.71732,110.485044 C110.992416,108.943011 109.480319,108.427861 108.062,107.802029 C104.590132,106.270927 102.447594,103.641887 101.715846,99.9354047 C101.509806,98.8900742 101.551562,97.7846201 101.580311,96.7092278 C101.58921,96.3894797 101.86507,95.9535837 102.147091,95.785511 C104.266355,94.5276983 106.412315,93.3149782 108.567174,92.1186556 C108.762261,92.0100232 109.12437,92.027787 109.33041,92.1357361 C113.139745,94.1403111 115.624541,97.1936326 116.562329,101.421414 C117.292708,104.714546 116.806702,107.909978 115.534185,110.979697 C115.020797,112.21838 114.263037,113.356628 113.608639,114.536554 C113.555247,114.634255 113.443671,114.698477 113.245161,114.886364 C113.245161,114.886364 113.443671,114.698477 113.245161,114.886364 Z M28.0008735,84.0263258 L28.0008735,73.4090909 L48.2371162,73.4090909 C47.8012145,74.2006458 47.3947378,74.9586777 46.9691006,75.7057632 C45.4485768,78.3752941 43.9266843,81.0441409 42.3856313,83.7020414 C42.2823014,83.8812872 42.0174757,84.0790049 41.8272391,84.0796891 C37.2773007,84.0974768 32.7273624,84.0899512 28.177424,84.0851622 C28.1343128,84.0851622 28.0912017,84.0577964 28.0008735,84.0263258 C28.0008735,84.0263258 28.0912017,84.0577964 28.0008735,84.0263258 Z M101.215145,73.4090909 L121.224014,73.4090909 L121.224014,84.0431003 C121.062123,84.0574336 120.881106,84.088148 120.700089,84.088148 C116.469756,84.0908782 112.238739,84.0963386 108.008406,84.0758623 C107.753616,84.0744972 107.382019,83.9311633 107.263162,83.7345911 C105.25968,80.4126577 103.288302,77.071613 101.312143,73.7332985 C101.267059,73.6575363 101.258862,73.5599328 101.215145,73.4090909 C101.215145,73.4090909 101.258862,73.5599328 101.215145,73.4090909 Z M109.173218,89.9220914 C106.078481,91.6888959 103.013917,93.4386726 99.881465,95.2272727 C98.1472331,92.2528566 96.4404306,89.3274806 94.7349997,86.4021046 C97.5170396,84.8103459 100.307308,83.2172249 103.092777,81.6152495 C104.012352,81.0867066 104.009609,81.0730843 104.531456,81.9660222 C106.063395,84.5883033 107.592591,87.2119468 109.173218,89.9220914 C109.173218,89.9220914 107.592591,87.2119468 109.173218,89.9220914 Z M69.1457957,61.3636364 C66.0104703,59.571549 62.9403497,57.8162853 59.8331654,56.0398822 C60.9766532,54.0868615 62.0700361,52.1297494 63.2553923,50.2292366 C63.9410731,49.1306625 65.1291748,48.8210706 66.3069809,49.0461044 C68.7120116,49.5057189 70.7566995,50.6765766 72.2042479,52.6848327 C72.888556,53.6340662 73.0196522,54.6883155 72.3696624,55.7800704 C71.2714749,57.6233018 70.2227058,59.4931281 69.1457957,61.3636364 C69.1457957,61.3636364 70.2227058,59.4931281 69.1457957,61.3636364 Z M36.430202,96.8181818 C39.4917793,98.5795647 42.4818086,100.300621 45.5086341,102.042182 C41.0024664,106.35781 36.5351392,110.636528 31.97991,115 C33.4728804,108.8977 34.9392758,102.907495 36.430202,96.8181818 C36.430202,96.8181818 34.9392758,102.907495 36.430202,96.8181818 Z"></path>
                    </g>
                </g>
            </g>
        </g>
    </g>
</svg>