<svg viewBox="0 0 149 149" xmlns="http://www.w3.org/2000/svg">
  <g fill="none" stroke="#D9B37E" transform="translate(0 0)"><circle cx="74.5" cy="74.5" r="74.5"/><circle cx="75" cy="75" r="70"/><path d="M51.257 108.575l-5.158-57.853h56.677l-5.163 57.844-23.21 6.435-23.146-6.425z"/><path
    d="M74.425 69.643h-10.025l.648 7.266h25.858l-.173 1.905-1.667 18.68-.107 1.199-14.521 4.025v.001l-.033.009-14.534-4.035-.994-11.141h7.122999999999999l.505 5.659 7.902 2.134.007-.002v-.001l7.914-2.136.824-9.202h-24.591l-1.744-19.553-.17-1.904h35.541l-.17 1.904-.323 3.597-.142 1.595h-17.127z"/><path d="M51.372 35h3.606v3.563h3.298v-3.563h3.606v10.788h-3.606v-3.613h-3.298v3.613h-3.606v-10.788z"/><path d="M66.624 38.578h-3.174v-3.578h9.956v3.578h-3.176v7.211h-3.606v-7.211z"/><path d="M74.986 35h3.76l2.313 3.791 2.31-3.791h3.761v10.788h-3.591v-5.347l-2.481 3.836h-.062l-2.483-3.836v5.347h-3.528v-10.788z"/><path d="M88.925 35h3.607v7.222h5.071v3.566h-8.678v-10.788z"/></g>
</svg>
