<?xml version="1.0" encoding="UTF-8" standalone="no"?>
<svg width="149px" height="149px" viewBox="0 0 149 149" version="1.1" xmlns="http://www.w3.org/2000/svg" xmlns:xlink="http://www.w3.org/1999/xlink" xmlns:sketch="http://www.bohemiancoding.com/sketch/ns">
    <!-- Generator: Sketch 3.3.3 (12072) - http://www.bohemiancoding.com/sketch -->
    <title>shopify_logo</title>
    <desc>Created with Sketch.</desc>
    <defs></defs>
    <g id="Page-1-Copy" stroke="none" stroke-width="1" fill="none" fill-rule="evenodd" sketch:type="MSPage">
        <g id="Desktop" sketch:type="MSArtboardGroup" transform="translate(-604.000000, -3174.000000)" stroke="#D9B37E">
            <g id="Specialities-Module" sketch:type="MSLayerGroup" transform="translate(-3.000000, 785.000000)">
                <g id="Group" transform="translate(181.000000, 1842.000000)" sketch:type="MSShapeGroup">
                    <g id="shopify_logo" transform="translate(426.000000, 547.000000)">
                        <circle id="outer" cx="74.5" cy="74.5" r="74.5"></circle>
                        <circle id="inner" cx="75" cy="75" r="70"></circle>
                        <path d="M71.81408,37.9184 C72.2576,37.9184 72.70432,38.0688 73.13184,38.3632 C69.83904,39.91264 66.30944,43.81536 64.81888,51.60864 C62.64032,52.2832 60.51104,52.9424 58.5424,53.55232 C60.28832,47.608 64.43424,37.9184 71.81408,37.9184 L71.81408,37.9184 Z M74.86688,40.808 C75.49856,42.39136 75.90944,44.66336 75.90944,47.7296 C75.90944,47.8864 75.90816,48.02976 75.90688,48.17504 C73.40576,48.94944 70.6896,49.7904 67.9664,50.63392 C69.49536,44.73312 72.36128,41.8832 74.86688,40.808 L74.86688,40.808 Z M82.4464,46.15136 C81.30528,46.50464 80.008,46.90592 78.60192,47.34112 C78.6032,47.0704 78.60384,46.80352 78.60384,46.51232 C78.60384,43.97152 78.25184,41.92608 77.68544,40.30432 C79.95872,40.58976 81.47232,43.17536 82.4464,46.15136 L82.4464,46.15136 Z M100.89888,50.67424 C100.84384,50.2736 100.49312,50.05216 100.2032,50.02784 C99.91392,50.00352 93.7904,49.54976 93.7904,49.54976 C93.7904,49.54976 89.5376,45.32768 89.07104,44.86048 C88.60384,44.39392 87.69184,44.53536 87.33792,44.63968 C87.28544,44.65504 86.40864,44.92576 84.95776,45.3744 C83.53696,41.28672 81.03008,37.52992 76.6192,37.52992 C76.4976,37.52992 76.37216,37.53504 76.24608,37.54208 C74.99232,35.8832 73.4384,35.16256 72.09632,35.16256 C61.82176,35.16256 56.91296,48.00672 55.37376,54.53408 C51.38144,55.7712 48.54496,56.65056 48.18272,56.76448 C45.9536,57.46336 45.88384,57.53376 45.59136,59.6336 C45.37056,61.22336 39.53952,106.31776 39.53952,106.31776 L84.97632,114.83104 L109.59584,109.50496 C109.59584,109.50496 100.95328,51.07488 100.89888,50.67424 L100.89888,50.67424 Z" id="bag"></path>
                        <path d="M100.2032,50.02784 C99.91392,50.00352 93.7904,49.54976 93.7904,49.54976 C93.7904,49.54976 89.5376,45.32768 89.07104,44.86112 C88.89632,44.6864 88.6608,44.59744 88.4144,44.55904 L84.97888,114.8304 L109.59584,109.50496 C109.59584,109.50496 100.95328,51.07552 100.89888,50.67424 C100.84384,50.2736 100.49312,50.05216 100.2032,50.02784" id="bag_shadow"></path>
                        <path d="M76.6192,63.63104 L73.58368,72.6608 C73.58368,72.6608 70.92384,71.24128 67.66368,71.24128 C62.88416,71.24128 62.64352,74.24096 62.64352,74.9968 C62.64352,79.12096 73.3936,80.70112 73.3936,90.36128 C73.3936,97.96128 68.57376,102.85536 62.07392,102.85536 C54.2736,102.85536 50.28576,98.00096 50.28576,98.00096 L52.37408,91.10112 C52.37408,91.10112 56.47392,94.62112 59.93376,94.62112 C62.1936,94.62112 63.11392,92.84128 63.11392,91.5408 C63.11392,86.16096 54.29408,85.92096 54.29408,77.08128 C54.29408,69.64128 59.6336,62.44128 70.41376,62.44128 C74.56736,62.44128 76.6192,63.63104 76.6192,63.63104" id="text"></path>
                    </g>
                </g>
            </g>
        </g>
    </g>
</svg>